<?xml version="1.0" encoding="utf-8"?>
<!-- Generator: Adobe Illustrator 27.0.0, SVG Export Plug-In . SVG Version: 6.00 Build 0)  -->
<svg version="1.1" id="Layer_1" xmlns="http://www.w3.org/2000/svg" xmlns:xlink="http://www.w3.org/1999/xlink" x="0px" y="0px"
	 viewBox="0 0 63.16 62.63" style="enable-background:new 0 0 63.16 62.63;" xml:space="preserve">
<style type="text/css">
	.st0{fill:#555555;}
</style>
<g>
	<g>
		<g>
			<path class="st0" d="M21.48,19.16l1.65,1.65c0.98-0.71,2-1.11,2.83-1.11c0.51,0,0.95,0.15,1.26,0.46l21.57,21.57l1.37-1.37
				c0.16-0.16,0.37-0.24,0.58-0.24s0.42,0.08,0.58,0.24c0.32,0.32,0.32,0.84,0,1.16l-9.27,9.27c-0.16,0.16-0.37,0.24-0.58,0.24
				s-0.42-0.08-0.58-0.24c-0.32-0.32-0.32-0.84,0-1.16l1.37-1.37L20.69,26.69c-0.84-0.84-0.49-2.58,0.72-4.19l-1.63-1.63
				L21.48,19.16L21.48,19.16z M21.48,16.33l-1.41,1.41l-1.71,1.71l-1.41,1.41l1.41,1.41l0.53,0.53c-0.97,2.04-0.86,4.04,0.39,5.3
				l20.16,20.16c-1.05,1.1-1.04,2.86,0.05,3.94c0.53,0.53,1.24,0.83,1.99,0.83c0.75,0,1.46-0.29,1.99-0.83l9.27-9.27
				c1.1-1.1,1.1-2.89,0-3.99c-0.53-0.53-1.24-0.83-1.99-0.83c-0.73,0-1.42,0.28-1.95,0.78L28.64,18.75
				c-0.68-0.68-1.61-1.05-2.68-1.05c-0.8,0-1.65,0.21-2.51,0.6l-0.56-0.56L21.48,16.33L21.48,16.33z"/>
		</g>
	</g>
	<g>
		<g>
			<path class="st0" d="M49.3,46.59l7.47,7.47l-2.19,2.19l-7.47-7.47L49.3,46.59L49.3,46.59z M49.3,43.76l-1.41,1.41l-2.19,2.19
				l-1.41,1.41l1.41,1.41l7.47,7.47l1.41,1.41L56,57.66l2.19-2.19l1.41-1.41l-1.41-1.41l-7.47-7.47L49.3,43.76L49.3,43.76z"/>
		</g>
	</g>
	<g>
		<g>
			<path class="st0" d="M60.49,53.46c0.17,0,0.34,0.06,0.47,0.19c0.26,0.26,0.26,0.68,0,0.94l-5.84,5.84
				c-0.13,0.13-0.3,0.19-0.47,0.19s-0.34-0.06-0.47-0.19c-0.26-0.26-0.26-0.68,0-0.94l5.84-5.84
				C60.16,53.53,60.32,53.46,60.49,53.46L60.49,53.46z M60.49,51.46c-0.71,0-1.38,0.28-1.88,0.78l-5.84,5.84
				c-1.04,1.04-1.04,2.73,0,3.76c0.5,0.5,1.17,0.78,1.88,0.78c0.71,0,1.38-0.28,1.88-0.78l5.84-5.84c1.04-1.04,1.04-2.73,0-3.76
				C61.87,51.74,61.21,51.46,60.49,51.46L60.49,51.46z"/>
		</g>
	</g>
	<g>
		<g>
			<path class="st0" d="M16.17,13.92c0.42,0,0.83,0.16,1.15,0.47l2.45,2.45c0.11-0.08,0.24-0.13,0.37-0.13
				c0.15,0,0.3,0.06,0.41,0.17c0.23,0.23,0.23,0.61,0,0.84l-2.29,2.29c-0.12,0.12-0.27,0.18-0.42,0.18c-0.15,0-0.31-0.06-0.42-0.18
				c-0.23-0.23-0.23-0.61,0-0.84l0.03-0.03L15,16.71c-0.63-0.63-0.63-1.66,0-2.29l0.02-0.02C15.34,14.07,15.76,13.92,16.17,13.92
				L16.17,13.92z M16.17,11.92c-0.97,0-1.88,0.38-2.56,1.06c-1.44,1.44-1.44,3.73-0.02,5.14l1.67,1.67c0.04,0.6,0.29,1.19,0.75,1.65
				c0.49,0.49,1.14,0.76,1.84,0.76c0.69,0,1.35-0.27,1.84-0.76l2.29-2.29c0.49-0.49,0.76-1.14,0.76-1.84c0-0.69-0.27-1.35-0.76-1.84
				c-0.4-0.4-0.91-0.65-1.47-0.73l-1.77-1.77C18.05,12.29,17.14,11.92,16.17,11.92L16.17,11.92z"/>
		</g>
	</g>
	<g>
		<g>
			<path class="st0" d="M2.7,1.16C1.95,1.15,1.06,0.74,0.32,0L0,0.32l14.07,14.07L15,13.46L2.7,1.16z"/>
		</g>
	</g>
	<g>
		<g>
			
				<rect x="39.58" y="43.29" transform="matrix(0.7071 -0.7071 0.7071 0.7071 -18.1898 44.6619)" class="st0" width="10.48" height="2"/>
		</g>
	</g>
	<g>
		<g>
			
				<rect x="15.85" y="16.52" transform="matrix(0.7071 -0.7071 0.7071 0.7071 -7.0772 17.945)" class="st0" width="4.54" height="2"/>
		</g>
	</g>
	<g>
		<g>
			<path class="st0" d="M26.86,27.33c-0.26,0-0.51-0.1-0.71-0.29c-0.39-0.39-0.39-1.02,0-1.41l3.27-3.27c0.39-0.39,1.02-0.39,1.41,0
				c0.39,0.39,0.39,1.02,0,1.41l-3.27,3.27C27.38,27.24,27.12,27.33,26.86,27.33z"/>
		</g>
	</g>
	<g>
		<g>
			<path class="st0" d="M31.18,31.65c-0.26,0-0.51-0.1-0.71-0.29c-0.39-0.39-0.39-1.02,0-1.41l3.27-3.27c0.39-0.39,1.02-0.39,1.41,0
				c0.39,0.39,0.39,1.02,0,1.41l-3.27,3.27C31.69,31.55,31.44,31.65,31.18,31.65z"/>
		</g>
	</g>
	<g>
		<g>
			<path class="st0" d="M35.49,35.96c-0.26,0-0.51-0.1-0.71-0.29c-0.39-0.39-0.39-1.02,0-1.41l3.27-3.27c0.39-0.39,1.02-0.39,1.41,0
				c0.39,0.39,0.39,1.02,0,1.41l-3.27,3.27C36.01,35.87,35.75,35.96,35.49,35.96z"/>
		</g>
	</g>
	<g>
		<g>
			<path class="st0" d="M39.81,40.28c-0.26,0-0.51-0.1-0.71-0.29c-0.39-0.39-0.39-1.02,0-1.41l3.27-3.27c0.39-0.39,1.02-0.39,1.41,0
				c0.39,0.39,0.39,1.02,0,1.41l-3.27,3.27C40.32,40.18,40.06,40.28,39.81,40.28z"/>
		</g>
	</g>
</g>
</svg>
