<?xml version="1.0" encoding="utf-8"?>
<!-- Generator: Adobe Illustrator 27.0.0, SVG Export Plug-In . SVG Version: 6.00 Build 0)  -->
<svg version="1.1" id="Layer_1" xmlns="http://www.w3.org/2000/svg" xmlns:xlink="http://www.w3.org/1999/xlink" x="0px" y="0px"
	 viewBox="0 0 67.67 70.66" style="enable-background:new 0 0 67.67 70.66;" xml:space="preserve">
<style type="text/css">
	.st0{fill:#555555;}
</style>
<g>
	<g>
		<g>
			<path class="st0" d="M33.84,70.66l-1.79-0.56c-1.2-0.37-29.3-9.69-31.69-55.19L0,8.17L6.73,8.6C7.57,8.66,8.41,8.69,9.2,8.69
				c8.24,0,15.86-2.62,20.39-7L31.33,0h5.06l1.75,1.69c4.53,4.38,12.15,7,20.39,7c0.78,0,1.59-0.03,2.43-0.08l6.72-0.43l-0.35,6.73
				c-2.39,45.5-30.49,54.82-31.69,55.19L33.84,70.66z M2.12,10.31l0.24,4.49C4.66,58.93,31.5,67.83,32.64,68.19l1.2,0.38l1.2-0.38
				c1.14-0.36,27.98-9.26,30.29-53.39l0.24-4.49l-4.48,0.28c-0.88,0.06-1.73,0.08-2.55,0.08c-8.75,0-16.89-2.83-21.78-7.56L35.58,2
				h-3.44l-1.16,1.13c-4.89,4.73-13.03,7.56-21.78,7.56c-0.84,0-1.71-0.03-2.6-0.09L2.12,10.31z"/>
		</g>
	</g>
	<g>
		<g>
			<path class="st0" d="M33.84,65.42l-0.3-0.09c-0.26-0.08-25.99-8.62-28.19-50.68l-0.06-1.12l1.12,0.07
				c0.95,0.06,1.89,0.09,2.79,0.09c9.5,0,18.43-3.14,23.86-8.41L33.35,5h1.01l0.29,0.28c5.44,5.26,14.36,8.41,23.86,8.41
				c0.88,0,1.8-0.03,2.74-0.09l1.12-0.07l-0.06,1.12c-2.21,42.06-27.93,50.6-28.19,50.68L33.84,65.42z M7.41,15.65
				c2.36,37.21,23.63,46.59,26.43,47.66c2.8-1.07,24.07-10.45,26.43-47.66c-0.59,0.02-1.18,0.04-1.74,0.04
				c-9.68,0-18.82-3.13-24.66-8.41c-5.84,5.28-14.98,8.41-24.66,8.41C8.62,15.69,8.02,15.67,7.41,15.65z"/>
		</g>
	</g>
	<g>
		<g>
			<g>
				<path class="st0" d="M40.86,54.81L40.86,54.81c-1.18,0-2.1-0.92-2.1-2.11c0-1.37-0.15-2.71-0.43-3.97
					c-0.42-1.82-1.38-4.33-2.86-5.92c-0.82-0.89-2.45-0.89-3.27,0c-1.47,1.59-2.44,4.1-2.86,5.92c-0.29,1.26-0.43,2.59-0.43,3.97
					c0,1.18-0.92,2.1-2.1,2.1c-0.88,0-1.63-0.52-1.94-1.37c-0.84-2.26-1.31-4.87-1.43-7.98c-0.09-2.34,0.23-4.9,0.49-6.95
					c0.15-1.2,0.28-2.23,0.26-2.76c-0.03-1-0.46-1.73-1-2.64c-0.16-0.27-0.32-0.55-0.48-0.84c-0.9-1.67-1.06-3.05-1.18-4.69
					c-0.26-3.6,1.57-6.52,4.89-7.8c0.85-0.33,1.75-0.49,2.73-0.49c1.6,0,3.15,0.42,4.64,0.83l0.04,0.01l0.04-0.01
					c1.5-0.41,3.04-0.83,4.64-0.83c0.99,0,1.88,0.16,2.73,0.49c3.32,1.28,5.15,4.2,4.89,7.8c-0.12,1.63-0.28,3.01-1.18,4.69
					c-0.16,0.29-0.32,0.56-0.48,0.84c-0.54,0.92-0.97,1.64-1,2.64c-0.02,0.53,0.11,1.56,0.26,2.76c0.26,2.06,0.58,4.62,0.49,6.95
					c-0.12,3.11-0.59,5.72-1.43,7.98C42.49,54.29,41.75,54.81,40.86,54.81z M33.84,40.12c1.18,0,2.32,0.49,3.11,1.34
					c1.74,1.88,2.86,4.76,3.34,6.83c0.32,1.4,0.48,2.89,0.48,4.41c0,0.05,0,0.11,0.1,0.11c0,0,0,0,0,0c0.03,0,0.05,0,0.07-0.07
					c0.77-2.06,1.2-4.46,1.31-7.35c0.08-2.18-0.22-4.64-0.47-6.63c-0.17-1.33-0.3-2.38-0.28-3.07c0.05-1.51,0.67-2.57,1.27-3.6
					c0.15-0.25,0.3-0.5,0.44-0.77c0.71-1.33,0.84-2.45,0.95-3.88c0.2-2.72-1.12-4.83-3.62-5.79c-0.62-0.24-1.28-0.35-2.01-0.35
					c-1.33,0-2.75,0.39-4.12,0.76l-0.57,0.15l-0.57-0.15c-1.37-0.37-2.79-0.76-4.12-0.76c-0.74,0-1.4,0.12-2.01,0.35
					c-2.5,0.96-3.81,3.08-3.62,5.79c0.1,1.44,0.23,2.56,0.95,3.88c0.14,0.27,0.29,0.52,0.44,0.77c0.6,1.03,1.23,2.09,1.27,3.6
					c0.02,0.69-0.11,1.74-0.28,3.07c-0.25,1.98-0.56,4.45-0.47,6.63c0.11,2.9,0.54,5.3,1.31,7.35c0.17,0.07,0.17,0.01,0.17-0.04
					c0-1.52,0.16-3.01,0.48-4.41c0.47-2.07,1.59-4.95,3.34-6.83C31.52,40.61,32.65,40.12,33.84,40.12z"/>
			</g>
		</g>
	</g>
	<g>
		<g>
			<g>
				<path class="st0" d="M26.6,31.53c-0.36,0-0.7-0.19-0.88-0.53c-0.6-1.11-0.71-2.05-0.78-3.07c-0.17-2.38,1.09-4.39,3.29-5.24
					c0.51-0.2,1.09,0.06,1.29,0.57c0.2,0.52-0.06,1.09-0.57,1.29c-1.39,0.54-2.12,1.72-2.01,3.23c0.06,0.87,0.13,1.5,0.55,2.27
					c0.26,0.49,0.08,1.09-0.41,1.35C26.93,31.5,26.76,31.53,26.6,31.53z"/>
			</g>
		</g>
	</g>
</g>
</svg>
