<?xml version="1.0" encoding="utf-8"?>
<!-- Generator: Adobe Illustrator 27.0.0, SVG Export Plug-In . SVG Version: 6.00 Build 0)  -->
<svg version="1.1" id="Layer_1" xmlns="http://www.w3.org/2000/svg" xmlns:xlink="http://www.w3.org/1999/xlink" x="0px" y="0px"
	 viewBox="0 0 72.34 60.22" style="enable-background:new 0 0 72.34 60.22;" xml:space="preserve">
<style type="text/css">
	.st0{fill:#555555;}
</style>
<g>
	<g>
		<g>
			<g>
				<path class="st0" d="M32.9,60.22c-1.43,0-2.91-1.09-2.91-2.92c-0.01-2.47-0.27-4.85-0.78-7.06c-0.75-3.25-2.49-7.75-5.14-10.61
					c-0.86-0.93-2.09-1.46-3.39-1.46c-1.3,0-2.53,0.53-3.39,1.46c-2.66,2.88-4.4,7.37-5.13,10.61c-0.52,2.26-0.78,4.63-0.78,7.06
					c0,1.83-1.48,2.92-2.91,2.92c-1.22,0-2.25-0.73-2.69-1.9c-1.43-3.83-2.24-8.29-2.45-13.62c-0.15-4,0.4-8.41,0.85-11.96
					c0.26-2.11,0.49-3.93,0.46-4.91C4.6,25.9,3.77,24.5,2.82,22.88c-0.27-0.46-0.55-0.94-0.81-1.43c-1.49-2.76-1.76-5.08-1.97-7.84
					C-0.39,7.7,2.61,2.9,8.07,0.8C9.45,0.26,10.92,0,12.54,0c2.67,0,5.3,0.71,7.85,1.4l0.3,0.08l0.32-0.09
					C23.55,0.71,26.17,0,28.84,0c1.62,0,3.09,0.26,4.48,0.8c2.93,1.13,5.2,3.07,6.57,5.61l0.98,1.81l-2.03-0.35
					c-0.74-0.13-1.49-0.19-2.25-0.19c-3.53,0-6.85,1.38-9.35,3.87c-5.16,5.16-5.16,13.56,0,18.72c2.47,2.46,5.75,3.84,9.24,3.87
					l0.88,0.01l0.1,0.88c0.35,2.97,0.68,6.44,0.56,9.68c-0.2,5.31-1,9.77-2.44,13.62C35.15,59.49,34.12,60.22,32.9,60.22z
					 M20.69,36.17c1.85,0,3.62,0.76,4.85,2.1c2.92,3.15,4.82,8.02,5.62,11.53c0.54,2.36,0.81,4.88,0.83,7.5
					c0,0.73,0.59,0.92,0.91,0.92c0.22,0,0.62-0.08,0.82-0.6c1.37-3.65,2.12-7.9,2.32-13c0.11-2.81-0.15-5.83-0.45-8.52
					c-3.69-0.24-7.12-1.79-9.75-4.42c-5.94-5.94-5.94-15.61,0-21.54c2.97-2.97,6.96-4.57,11.14-4.46c-1.12-1.3-2.6-2.33-4.38-3.01
					C31.44,2.22,30.21,2,28.84,2c-2.4,0-4.9,0.67-7.31,1.33l-0.85,0.23l-0.82-0.22C17.45,2.68,14.95,2,12.54,2
					c-1.37,0-2.6,0.22-3.75,0.66C4.2,4.44,1.67,8.47,2.04,13.46c0.19,2.6,0.43,4.62,1.73,7.04c0.25,0.47,0.52,0.92,0.78,1.37
					c1,1.7,2.03,3.46,2.11,5.9c0.03,1.14-0.19,2.94-0.48,5.22c-0.43,3.47-0.98,7.79-0.83,11.63c0.21,5.11,0.97,9.36,2.33,13
					c0.19,0.52,0.59,0.6,0.81,0.6c0.32,0,0.91-0.19,0.91-0.92c0-2.58,0.28-5.1,0.83-7.5c0.79-3.49,2.68-8.35,5.61-11.53
					C17.07,36.94,18.84,36.17,20.69,36.17z"/>
			</g>
		</g>
	</g>
	<g>
		<path class="st0" d="M64.02,56.64L53.48,46.11l-1.43-5.36l-7.11-7.12c-2.51,1.66-5.41,2.49-8.47,2.5
			c-4.02-0.03-7.8-1.61-10.64-4.45c-5.94-5.94-5.94-15.61,0-21.54c3.5-3.5,8.49-5.08,13.35-4.24c3.11,0.52,5.95,1.99,8.2,4.24
			c5.09,5.09,5.87,13.16,1.96,19.11l7.11,7.11l5.37,1.43l10.53,10.53L64.02,56.64z M55.28,45.07l8.74,8.74l5.5-5.5l-8.73-8.73
			l-5.37-1.43l-8.69-8.69l0.51-0.69c3.87-5.22,3.32-12.62-1.27-17.22c-1.96-1.96-4.42-3.23-7.12-3.68
			c-4.23-0.74-8.56,0.64-11.6,3.68c-5.16,5.16-5.16,13.56,0,18.72c2.47,2.46,5.75,3.84,9.24,3.87c2.89,0.01,5.66-0.88,7.97-2.6
			l0.69-0.52l8.69,8.7L55.28,45.07z"/>
		<path class="st0" d="M36.59,32.58c-0.2,0-0.4,0-0.6-0.01c-2.88-0.16-5.59-1.37-7.64-3.41c-2.2-2.2-3.42-5.13-3.42-8.25
			c0-3.12,1.21-6.06,3.42-8.27c3.2-3.2,8.01-4.26,12.27-2.7c1.6,0.57,3.02,1.48,4.24,2.7c4.55,4.56,4.55,11.97,0,16.51l0,0l0,0
			C42.67,31.35,39.68,32.58,36.59,32.58z M36.62,11.23c-2.53,0-5.01,0.99-6.85,2.82c-1.83,1.83-2.84,4.26-2.83,6.85
			c0,2.58,1.01,5.01,2.83,6.83c1.69,1.69,3.94,2.7,6.33,2.83c2.73,0.13,5.42-0.89,7.36-2.83l0,0c3.77-3.77,3.77-9.91,0-13.69
			c-1.01-1.01-2.19-1.76-3.51-2.24C38.86,11.42,37.73,11.23,36.62,11.23z"/>
	</g>
	<g>
		<g>
			<path class="st0" d="M36.59,32.58c-0.2,0-0.4-0.01-0.6-0.02c-2.88-0.16-5.59-1.37-7.64-3.41c-2.2-2.2-3.42-5.13-3.42-8.25
				c0-3.12,1.21-6.06,3.42-8.27c2.2-2.2,5.13-3.41,8.25-3.41c1.38,0,2.73,0.24,4.02,0.71c1.6,0.57,3.02,1.48,4.24,2.7
				c4.55,4.56,4.55,11.97,0,16.51C42.66,31.37,39.72,32.58,36.59,32.58z M36.6,11.23c-2.59,0-5.01,1-6.84,2.83
				c-1.83,1.83-2.84,4.26-2.83,6.85c0,2.58,1.01,5.01,2.83,6.83c1.69,1.69,3.94,2.7,6.33,2.83c0.16,0.01,0.33,0.01,0.5,0.01
				c2.59,0,5.03-1.01,6.86-2.84c3.77-3.77,3.77-9.91,0-13.69c-1.01-1.01-2.19-1.76-3.51-2.24C38.87,11.43,37.74,11.23,36.6,11.23z"
				/>
		</g>
	</g>
	<g>
		<g>
			<path class="st0" d="M29.69,22.32c-0.53,0-0.98-0.42-1-0.96c-0.28-6.56,4.95-8.62,7.75-8.79c0.57-0.02,1.03,0.39,1.06,0.94
				c0.03,0.55-0.38,1.02-0.93,1.06c-0.25,0.02-6.14,0.49-5.88,6.71c0.02,0.55-0.4,1.02-0.96,1.04
				C29.71,22.32,29.7,22.32,29.69,22.32z"/>
		</g>
	</g>
	<g>
		<g>
			<g>
				<path class="st0" d="M6.33,20.25c-0.36,0-0.7-0.19-0.88-0.53c-1.13-2.09-1.33-3.83-1.48-5.89c-0.15-2.13,0.3-4.14,1.3-5.81
					c0.29-0.47,0.9-0.63,1.37-0.34c0.47,0.29,0.62,0.9,0.34,1.37c-0.79,1.31-1.14,2.91-1.02,4.63c0.14,1.88,0.31,3.34,1.25,5.09
					c0.26,0.49,0.08,1.09-0.41,1.35C6.65,20.21,6.49,20.25,6.33,20.25z"/>
			</g>
		</g>
		<g>
			<g>
				<path class="st0" d="M7.99,7.43c-0.26,0-0.52-0.1-0.72-0.3C6.89,6.73,6.9,6.1,7.29,5.71c0.96-0.94,1.5-1.2,2.82-1.61
					c0.52-0.16,1.09,0.13,1.25,0.66c0.16,0.53-0.13,1.09-0.66,1.25C9.59,6.36,9.37,6.48,8.69,7.15C8.49,7.34,8.24,7.43,7.99,7.43z"
					/>
			</g>
		</g>
	</g>
</g>
</svg>
