<?xml version="1.0" encoding="utf-8"?>
<!-- Generator: Adobe Illustrator 27.0.0, SVG Export Plug-In . SVG Version: 6.00 Build 0)  -->
<svg version="1.1" id="Layer_1" xmlns="http://www.w3.org/2000/svg" xmlns:xlink="http://www.w3.org/1999/xlink" x="0px" y="0px"
	 viewBox="0 0 41.39 60.22" style="enable-background:new 0 0 41.39 60.22;" xml:space="preserve">
<style type="text/css">
	.st0{fill:#555555;}
</style>
<g>
	<g>
		<g>
			<g>
				<path class="st0" d="M32.9,60.22C32.9,60.22,32.9,60.22,32.9,60.22c-1.43,0-2.91-1.09-2.91-2.92c0-2.44-0.26-4.82-0.77-7.05
					c-0.74-3.25-2.48-7.74-5.14-10.61c-0.86-0.92-2.09-1.46-3.39-1.46c-1.3,0-2.53,0.53-3.39,1.46c-2.66,2.87-4.4,7.37-5.14,10.61
					c-0.51,2.24-0.77,4.61-0.77,7.05c0,1.83-1.48,2.92-2.91,2.92c-1.22,0-2.25-0.73-2.69-1.9c-1.44-3.85-2.24-8.3-2.44-13.63
					c-0.15-4,0.4-8.42,0.84-11.96c0.26-2.11,0.49-3.93,0.46-4.9C4.6,25.9,3.78,24.5,2.82,22.89c-0.27-0.46-0.55-0.93-0.82-1.43
					c-1.5-2.78-1.77-5.1-1.97-7.85C-0.39,7.7,2.61,2.91,8.07,0.8C9.46,0.26,10.93,0,12.55,0c2.68,0,5.32,0.72,7.87,1.41l0.27,0.07
					l0.27-0.07C23.51,0.72,26.15,0,28.83,0c1.63,0,3.09,0.26,4.48,0.8c5.46,2.11,8.46,6.9,8.03,12.81c-0.2,2.75-0.47,5.07-1.97,7.85
					c-0.27,0.49-0.54,0.97-0.82,1.43c-0.95,1.62-1.78,3.02-1.83,4.94c-0.03,0.98,0.2,2.8,0.46,4.9c0.44,3.55,0.99,7.96,0.84,11.96
					c-0.21,5.32-1,9.78-2.44,13.63C35.15,59.49,34.12,60.22,32.9,60.22z M20.69,36.17c1.85,0,3.62,0.76,4.85,2.1
					c2.92,3.16,4.82,8.03,5.62,11.53c0.54,2.38,0.82,4.91,0.82,7.5c0,0.73,0.6,0.92,0.91,0.92l0,0c0.22,0,0.62-0.08,0.81-0.6
					c1.36-3.64,2.12-7.9,2.32-13c0.15-3.84-0.39-8.16-0.83-11.64c-0.29-2.28-0.51-4.08-0.48-5.21c0.07-2.44,1.11-4.2,2.11-5.9
					c0.26-0.44,0.52-0.89,0.78-1.36c1.31-2.44,1.55-4.45,1.73-7.04c0.36-4.99-2.16-9.03-6.75-10.8C31.44,2.22,30.21,2,28.83,2
					c-2.42,0-4.92,0.68-7.35,1.34l-0.79,0.22L19.9,3.34C17.47,2.68,14.97,2,12.55,2c-1.38,0-2.61,0.22-3.76,0.66
					C4.2,4.44,1.67,8.48,2.04,13.47c0.19,2.59,0.42,4.61,1.73,7.04c0.25,0.47,0.52,0.92,0.78,1.36c1,1.7,2.04,3.46,2.11,5.9
					c0.03,1.13-0.19,2.93-0.48,5.21c-0.43,3.47-0.97,7.8-0.83,11.64c0.2,5.11,0.96,9.36,2.32,13c0.19,0.52,0.59,0.6,0.81,0.6
					c0.32,0,0.91-0.19,0.91-0.92c0-2.59,0.28-5.11,0.82-7.5c0.8-3.5,2.69-8.37,5.62-11.53C17.07,36.94,18.84,36.17,20.69,36.17z"/>
			</g>
		</g>
	</g>
	<g>
		<g>
			<g>
				<path class="st0" d="M6.83,20.57c-0.36,0-0.7-0.19-0.88-0.53c-1.13-2.09-1.33-3.83-1.48-5.89c-0.16-2.13,0.29-4.14,1.3-5.81
					C6.06,7.87,6.67,7.72,7.14,8c0.47,0.29,0.62,0.9,0.34,1.37c-0.79,1.31-1.14,2.91-1.02,4.63c0.14,1.88,0.31,3.34,1.25,5.09
					c0.26,0.49,0.08,1.09-0.41,1.35C7.15,20.53,6.99,20.57,6.83,20.57z"/>
			</g>
		</g>
		<g>
			<g>
				<path class="st0" d="M8.49,7.74c-0.26,0-0.52-0.1-0.72-0.3C7.39,7.05,7.4,6.41,7.8,6.03c0.96-0.94,1.5-1.2,2.82-1.61
					c0.53-0.16,1.09,0.13,1.25,0.66c0.16,0.53-0.13,1.09-0.66,1.25C10.1,6.67,9.87,6.8,9.19,7.46C9,7.65,8.75,7.74,8.49,7.74z"/>
			</g>
		</g>
	</g>
</g>
</svg>
