<?xml version="1.0" encoding="utf-8"?>
<!-- Generator: Adobe Illustrator 27.0.0, SVG Export Plug-In . SVG Version: 6.00 Build 0)  -->
<svg version="1.1" id="Layer_1" xmlns="http://www.w3.org/2000/svg" xmlns:xlink="http://www.w3.org/1999/xlink" x="0px" y="0px"
	 viewBox="0 0 41.39 59.21" style="enable-background:new 0 0 41.39 59.21;" xml:space="preserve">
<style type="text/css">
	.st0{fill:#555555;}
</style>
<g>
	<g>
		<g>
			<g>
				<path class="st0" d="M39.85,20.52h-13.7l-1.39-6.27h-8.13l-1.39,6.27H1.53L1.28,19.9c-0.88-2.18-1.09-4.22-1.24-6.28
					C-0.39,7.7,2.61,2.91,8.07,0.8C9.46,0.26,10.92,0,12.55,0c2.68,0,5.32,0.72,7.87,1.41l0.27,0.07l0.27-0.07
					C23.52,0.72,26.15,0,28.84,0c1.63,0,3.09,0.26,4.48,0.8c5.46,2.11,8.46,6.9,8.03,12.81c-0.15,2.07-0.36,4.1-1.24,6.28
					L39.85,20.52z M27.76,18.52h10.73c0.52-1.51,0.71-3,0.86-5.05c0.36-4.99-2.16-9.03-6.75-10.8C31.44,2.22,30.21,2,28.84,2
					c-2.42,0-4.92,0.68-7.35,1.34l-0.8,0.22l-0.8-0.22C17.47,2.68,14.97,2,12.55,2c-1.38,0-2.61,0.22-3.76,0.66
					C4.2,4.44,1.67,8.48,2.04,13.47c0.15,2.06,0.34,3.54,0.86,5.05h10.73l1.39-6.27h11.34L27.76,18.52z"/>
			</g>
		</g>
		<g>
			<g>
				<path class="st0" d="M22.04,18.02l1.04,4.7l0.35,1.57h1.6h9.42c-0.4,1.01-0.68,2.13-0.72,3.45c-0.04,1.21,0.19,3.04,0.48,5.37
					c0.43,3.44,0.96,7.71,0.82,11.47c-0.18,4.72-0.85,8.69-2.05,12.12c-0.04-2.46-0.32-4.85-0.84-7.12
					c-0.83-3.63-2.8-8.68-5.86-11.98c-1.42-1.54-3.46-2.42-5.59-2.42c-2.13,0-4.17,0.88-5.59,2.42c-3.06,3.31-5.03,8.36-5.86,11.98
					c-0.52,2.27-0.8,4.65-0.84,7.12c-1.2-3.42-1.87-7.39-2.05-12.12c-0.15-3.76,0.39-8.03,0.82-11.47c0.29-2.32,0.52-4.16,0.48-5.37
					c-0.04-1.31-0.32-2.43-0.72-3.45h9.3h1.6l0.35-1.57l1.04-4.7H22.04L22.04,18.02z M23.65,16.02h-6.02l-1.39,6.27H3.64
					c1,1.7,1.95,3.29,2.02,5.5c0.08,2.72-1.55,10.45-1.3,16.86c0.16,4.23,0.73,8.91,2.38,13.32c0.32,0.85,1.04,1.24,1.75,1.24
					c0.96,0,1.91-0.7,1.91-1.92c0-2.46,0.26-4.91,0.8-7.28c0.77-3.36,2.58-8.05,5.38-11.07c1.1-1.18,2.61-1.78,4.12-1.78
					c1.51,0,3.02,0.59,4.12,1.78c2.8,3.02,4.61,7.71,5.38,11.07c0.54,2.36,0.8,4.82,0.8,7.28c0,1.22,0.96,1.92,1.91,1.92
					c0.71,0,1.43-0.39,1.75-1.24c1.65-4.41,2.22-9.09,2.38-13.32c0.25-6.41-1.38-14.14-1.3-16.86c0.07-2.22,1.02-3.8,2.02-5.5H25.04
					L23.65,16.02L23.65,16.02z"/>
			</g>
		</g>
	</g>
	<g>
		<g>
			<g>
				<path class="st0" d="M5.49,20.01c-0.36,0-0.7-0.19-0.88-0.53c-1.13-2.09-1.33-3.83-1.48-5.89c-0.15-2.14,0.3-4.14,1.3-5.81
					c0.29-0.47,0.9-0.62,1.37-0.34c0.47,0.29,0.62,0.9,0.34,1.37c-0.79,1.31-1.14,2.91-1.02,4.63c0.14,1.87,0.31,3.34,1.25,5.09
					c0.26,0.49,0.08,1.09-0.41,1.35C5.81,19.97,5.65,20.01,5.49,20.01z"/>
			</g>
		</g>
		<g>
			<g>
				<path class="st0" d="M7.15,7.19c-0.26,0-0.52-0.1-0.72-0.3c-0.39-0.4-0.38-1.03,0.02-1.41c0.96-0.94,1.5-1.2,2.82-1.61
					C9.8,3.7,10.36,4,10.52,4.52c0.16,0.53-0.13,1.09-0.66,1.25C8.75,6.12,8.53,6.24,7.85,6.9C7.65,7.09,7.4,7.19,7.15,7.19z"/>
			</g>
		</g>
	</g>
</g>
</svg>
