<?xml version="1.0" encoding="utf-8"?>
<!-- Generator: Adobe Illustrator 27.0.0, SVG Export Plug-In . SVG Version: 6.00 Build 0)  -->
<svg version="1.1" id="Layer_1" xmlns="http://www.w3.org/2000/svg" xmlns:xlink="http://www.w3.org/1999/xlink" x="0px" y="0px"
	 viewBox="0 0 84.65 28.4" style="enable-background:new 0 0 84.65 28.4;" xml:space="preserve">
<style type="text/css">
	.st0{fill:#555555;}
</style>
<g>
	<g>
		<g>
			<path class="st0" d="M42.33,10.98c-0.18,0-18.65-0.05-36.43-4.03L0,5.64l6.01-0.65c10.4-1.12,27.61-3.33,29.52-4.48L36.37,0
				l0.52,0.83c0.05,0.07,1.39,2.02,5.43,2.26c4.04-0.25,5.38-2.19,5.44-2.27l0.53-0.79l0.83,0.48c1.92,1.15,19.13,3.36,29.52,4.48
				l6.01,0.65l-5.9,1.32C60.97,10.94,42.51,10.98,42.33,10.98z M12.6,6.25c15.38,2.7,29.57,2.73,29.73,2.73
				c0.16,0,14.35-0.04,29.73-2.73c-7.62-0.91-19.53-2.46-23.16-3.69c-0.87,0.88-2.85,2.32-6.51,2.53l-0.06,0l-0.06,0
				c-3.66-0.21-5.63-1.66-6.51-2.53C32.13,3.79,20.21,5.34,12.6,6.25z"/>
		</g>
	</g>
	<g>
		<g>
			<path class="st0" d="M42.27,28.4l-0.3,0l-0.26,0c-2.89,0-28.53-0.53-38.75-18.8l-2-3.58l3.43,2.26
				c0.16,0.1,15.88,10.29,37.48,10.29c0,0,0,0,0,0h0.25c21.6,0,37.33-10.19,37.48-10.29l3.43-2.26l-2,3.58
				C70.8,27.87,45.16,28.4,42.27,28.4z M41.97,26.39l0.3,0c2.57,0,23.96-0.43,34.73-14.34c-5.98,3.11-18.7,8.51-34.88,8.51h-0.25
				c-16.19,0-28.91-5.4-34.88-8.51C17.76,25.97,39.14,26.4,41.71,26.4L41.97,26.39z"/>
		</g>
	</g>
</g>
</svg>
