<?xml version="1.0" encoding="utf-8"?>
<!-- Generator: Adobe Illustrator 27.0.0, SVG Export Plug-In . SVG Version: 6.00 Build 0)  -->
<svg version="1.1" id="Layer_1" xmlns="http://www.w3.org/2000/svg" xmlns:xlink="http://www.w3.org/1999/xlink" x="0px" y="0px"
	 viewBox="0 0 67.17 69.83" style="enable-background:new 0 0 67.17 69.83;" xml:space="preserve">
<style type="text/css">
	.st0{fill:#555555;}
</style>
<g>
	<g>
		<g>
			<g>
				<path class="st0" d="M8.53,2c0,0-2.33,14.82-1.84,16.55l12.74,2.66l5.59,5.59l3.86,1.03l3.73,3.73l29.74,28.59
					c1.17,1.13,1.19,3,0.04,4.15l-2.05,2.05c-0.57,0.57-1.31,0.85-2.06,0.85c-0.76,0-1.53-0.3-2.1-0.89L25.72,34.6l-1.81-1.81
					l-1.03-3.86l-5.58-5.6c0,0-9.82-1.22-11.86-3.14S8.53,2,8.53,2L8.53,2z M8.53,0C7.67,0,6.89,0.55,6.62,1.4
					c-5.5,17.46-3.28,19.56-2.55,20.25c2.15,2.02,9.27,3.17,12.3,3.58l4.72,4.74l0.89,3.34c0.09,0.34,0.27,0.65,0.52,0.9l1.81,1.81
					l30.44,31.67c0.93,0.97,2.19,1.51,3.54,1.51c1.31,0,2.54-0.51,3.47-1.44l2.05-2.05c0.94-0.94,1.45-2.19,1.44-3.52
					c-0.01-1.33-0.55-2.57-1.51-3.49L33.99,30.1l-3.7-3.7c-0.25-0.25-0.56-0.43-0.9-0.52L26.05,25l-5.21-5.21
					c-0.28-0.28-0.62-0.46-1.01-0.54l-11.2-2.33c0.16-2.74,1-9.12,1.87-14.6c0.16-1.03-0.5-2.02-1.52-2.26C8.83,0.02,8.68,0,8.53,0
					L8.53,0z"/>
			</g>
		</g>
		<g>
			<g>
				
					<rect x="15.81" y="21.38" transform="matrix(0.7071 -0.7071 0.7071 0.7071 -10.4219 19.6001)" class="st0" width="5.28" height="2"/>
			</g>
		</g>
		<g>
			<g>
				
					<rect x="21.19" y="26.76" transform="matrix(0.7071 -0.7071 0.7071 0.7071 -12.6508 24.9814)" class="st0" width="5.28" height="2"/>
			</g>
		</g>
		<g>
			<g>
				
					<rect x="21.74" y="29.39" transform="matrix(0.7071 -0.7071 0.7071 0.7071 -13.7943 27.4727)" class="st0" width="9.04" height="2"/>
			</g>
		</g>
	</g>
	<g>
		<g>
			<g>
				<path class="st0" d="M23.87,41.04l4.82,5.02L8.57,66.99c-0.53,0.55-1.24,0.83-1.95,0.83c-0.69,0-1.39-0.26-1.91-0.79l-1.91-1.91
					c-1.07-1.07-1.06-2.82,0.04-3.87L23.87,41.04L23.87,41.04z M23.92,38.21l-1.44,1.39L1.45,59.82C0.53,60.7,0.01,61.89,0,63.16
					c-0.01,1.28,0.48,2.47,1.38,3.38l1.91,1.91c0.89,0.89,2.07,1.38,3.33,1.38c1.29,0,2.5-0.51,3.39-1.45l20.12-20.94l1.33-1.39
					l-1.33-1.39l-4.82-5.02L23.92,38.21L23.92,38.21z"/>
			</g>
		</g>
		<g>
			<g>
				<path class="st0" d="M55.86,4.66c2.38,0,4.77,0.91,6.58,2.73c3.64,3.64,3.64,9.53,0,13.17c-1.82,1.82-4.19,2.72-6.57,2.72
					c-1.95,0-3.9-0.61-5.55-1.83l-5.16,5.16l-0.93,3.51l-2.28,2.38l-4.71-4.53l2.47-2.37l3.51-0.93l5.16-5.16
					c-2.7-3.65-2.41-8.81,0.89-12.12C51.09,5.57,53.47,4.66,55.86,4.66L55.86,4.66z M55.86,2.66c-3.02,0-5.86,1.18-8,3.31
					c-3.51,3.51-4.26,8.94-2.01,13.24l-3.66,3.66l-2.99,0.8l-0.5,0.13l-0.37,0.36l-2.47,2.37l-1.5,1.44l1.5,1.44l4.71,4.53L42,35.32
					l1.39-1.44l2.28-2.37l0.36-0.37l0.13-0.5l0.8-2.99l3.66-3.66c1.61,0.85,3.4,1.29,5.26,1.29c3.02,0,5.85-1.17,7.98-3.31
					c2.14-2.14,3.31-4.98,3.31-8s-1.18-5.86-3.31-8C61.72,3.83,58.88,2.66,55.86,2.66L55.86,2.66z"/>
			</g>
		</g>
		<g>
			<g>
				<path class="st0" d="M55.87,8.44c1.41,0,2.82,0.54,3.9,1.61c2.15,2.15,2.15,5.65,0,7.8c-1.07,1.07-2.49,1.61-3.9,1.61
					c-1.41,0-2.82-0.54-3.9-1.61c-2.15-2.15-2.15-5.65,0-7.8C53.05,8.98,54.46,8.44,55.87,8.44L55.87,8.44z M55.87,6.44L55.87,6.44
					c-2.01,0-3.9,0.78-5.31,2.2c-2.93,2.93-2.93,7.69,0,10.62c1.42,1.42,3.3,2.2,5.31,2.2c2.01,0,3.89-0.78,5.31-2.2
					c2.93-2.93,2.93-7.69,0-10.62C59.77,7.22,57.88,6.44,55.87,6.44L55.87,6.44z"/>
			</g>
		</g>
		<g>
			<g>
				
					<rect x="43.25" y="23.13" transform="matrix(0.7071 -0.7071 0.7071 0.7071 -5.1269 38.7811)" class="st0" width="2" height="4.91"/>
			</g>
		</g>
		<g>
			<g>
				
					<rect x="40.85" y="23.73" transform="matrix(0.7071 -0.7071 0.7071 0.7071 -7.4145 37.7457)" class="st0" width="2" height="8.19"/>
			</g>
		</g>
	</g>
</g>
</svg>
