<?xml version="1.0" encoding="utf-8"?>
<!-- Generator: Adobe Illustrator 27.0.0, SVG Export Plug-In . SVG Version: 6.00 Build 0)  -->
<svg version="1.1" id="Layer_1" xmlns="http://www.w3.org/2000/svg" xmlns:xlink="http://www.w3.org/1999/xlink" x="0px" y="0px"
	 viewBox="0 0 70.45 48.97" style="enable-background:new 0 0 70.45 48.97;" xml:space="preserve">
<style type="text/css">
	.st0{fill:#555555;}
</style>
<g>
	<g>
		<g>
			<path class="st0" d="M42.27,48.97H7.92c-3.36,0-6.1-2.37-6.1-5.28s2.74-5.29,6.1-5.29H41.4c1.29-2.08,6.86-8.21,28.08-7.67
				l0.97,0.02v9.58l-1.04-0.04c-0.01,0-0.69-0.02-1.8-0.02c-8.27,0-17.73,1.25-19.47,4.76l-0.09,0.15
				C47.77,45.57,45.14,48.97,42.27,48.97z M7.92,40.4c-2.26,0-4.1,1.47-4.1,3.29c0,1.81,1.84,3.28,4.1,3.28h34.35
				c1.55,0,3.5-2.1,4.14-2.93c2.63-5.02,14.4-5.78,21.22-5.78c0.31,0,0.59,0,0.83,0v-5.56c-22.35-0.36-25.49,6.97-25.52,7.04
				l-0.25,0.63L42,40.4H7.92z"/>
		</g>
	</g>
	<g>
		<g>
			<polygon class="st0" points="8.08,39.35 6.08,39.35 6.08,21.22 11.38,21.22 11.38,38.59 9.38,38.59 9.38,23.22 8.08,23.22 			"/>
		</g>
	</g>
	<g>
		<g>
			<polygon class="st0" points="14.67,38.59 12.67,38.59 12.67,23.22 11.38,23.22 11.38,38.59 9.38,38.59 9.38,21.22 14.67,21.22 
							"/>
		</g>
	</g>
	<g>
		<g>
			<polygon class="st0" points="17.96,38.59 15.96,38.59 15.96,23.22 14.67,23.22 14.67,38.59 12.67,38.59 12.67,21.22 17.96,21.22 
							"/>
		</g>
	</g>
	<g>
		<g>
			<polygon class="st0" points="21.25,38.59 19.25,38.59 19.25,23.22 17.96,23.22 17.96,38.59 15.96,38.59 15.96,21.22 21.25,21.22 
							"/>
		</g>
	</g>
	<g>
		<g>
			<polygon class="st0" points="24.55,38.59 22.55,38.59 22.55,23.22 21.25,23.22 21.25,38.59 19.25,38.59 19.25,21.22 24.55,21.22 
							"/>
		</g>
	</g>
	<g>
		<g>
			<polygon class="st0" points="27.84,38.59 25.84,38.59 25.84,23.22 24.55,23.22 24.55,38.59 22.55,38.59 22.55,21.22 27.84,21.22 
							"/>
		</g>
	</g>
	<g>
		<g>
			<polygon class="st0" points="31.13,38.59 29.13,38.59 29.13,23.22 27.84,23.22 27.84,38.59 25.84,38.59 25.84,21.22 31.13,21.22 
							"/>
		</g>
	</g>
	<g>
		<g>
			<path class="st0" d="M45.71,23.15l-1.45-0.85c-5.87-3.44-20.46-3.95-28.64-3.95c-3.25,0-5.43,0.08-5.45,0.08h0
				c-3.76,0-7.13-2.66-8.64-6.77C-0.15,7.07,0,1.9,0.01,1.68L0.06,0l1.45,0.85C7.38,4.29,21.98,4.8,30.15,4.8
				c3.25,0,5.43-0.08,5.45-0.09c0,0,0,0,0,0c3.75,0,7.13,2.66,8.64,6.77c1.68,4.59,1.53,9.77,1.52,9.99L45.71,23.15z M15.62,16.34
				c7.76,0,21.19,0.47,28.12,3.46c-0.08-1.82-0.37-4.88-1.38-7.64c-1.22-3.31-3.85-5.46-6.72-5.46c0.02,0-2.2,0.09-5.49,0.09
				c-7.76,0-21.19-0.47-28.12-3.46c0.08,1.82,0.37,4.88,1.38,7.64c1.22,3.31,3.85,5.46,6.72,5.46
				C10.11,16.43,12.33,16.34,15.62,16.34z"/>
		</g>
	</g>
	<g>
		<g>
			<polygon class="st0" points="34.42,38.59 32.42,38.59 32.42,23.22 31.13,23.22 31.13,38.59 29.13,38.59 29.13,21.22 34.42,21.22 
							"/>
		</g>
	</g>
	<g>
		<g>
			<polygon class="st0" points="37.71,38.59 35.71,38.59 35.71,23.22 34.42,23.22 34.42,38.59 32.42,38.59 32.42,21.22 37.71,21.22 
							"/>
		</g>
	</g>
	<g>
		<g>
			<polygon class="st0" points="41.01,38.59 39.01,38.59 39.01,23.22 37.71,23.22 37.71,38.59 35.71,38.59 35.71,21.22 41.01,21.22 
							"/>
		</g>
	</g>
	<g>
		<g>
			<path class="st0" d="M10.38,14.91c-0.08,0-0.17-0.01-0.25-0.03c-4.84-1.24-5.86-7.73-5.91-8.01C4.14,6.33,4.52,5.82,5.06,5.74
				C5.6,5.65,6.12,6.03,6.2,6.58c0.01,0.05,0.88,5.46,4.43,6.37c0.53,0.14,0.86,0.68,0.72,1.22C11.23,14.61,10.82,14.91,10.38,14.91
				z"/>
		</g>
	</g>
</g>
</svg>
