<?xml version="1.0" encoding="utf-8"?>
<!-- Generator: Adobe Illustrator 27.0.0, SVG Export Plug-In . SVG Version: 6.00 Build 0)  -->
<svg version="1.1" id="Layer_1" xmlns="http://www.w3.org/2000/svg" xmlns:xlink="http://www.w3.org/1999/xlink" x="0px" y="0px"
	 viewBox="0 0 63.34 63.33" style="enable-background:new 0 0 63.34 63.33;" xml:space="preserve">
<style type="text/css">
	.st0{fill:#555555;}
</style>
<g>
	<g>
		<g>
			<path class="st0" d="M16.12,24.77L16.12,24.77c-1.03,0-2.05-0.18-3.02-0.54c-1.16-0.41-2.22-1.09-3.11-1.99
				c-0.03-0.03-0.05-0.05-0.07-0.08l-0.11-0.11c-2.68-2.67-8.99-9.65-9.8-16.86c-0.06-0.58,0.11-1.12,0.48-1.53
				C1.23,2.84,2.64,2.8,3.44,3.61l3.62,3.61c0.38,0.38,0.6,0.89,0.61,1.42c0.01,0.55-0.19,1.06-0.58,1.44
				c0.19,0.42,0.59,1.16,1.33,2.08c0.41-0.8,0.94-1.54,1.58-2.18c0.64-0.64,1.38-1.17,2.18-1.58c-0.92-0.74-1.66-1.13-2.08-1.32
				C9.33,7.83,8,7.83,7.23,7.05L3.62,3.44c-0.6-0.6-0.78-1.48-0.46-2.24c0.33-0.8,1.13-1.29,2.03-1.19
				c7.24,0.8,14.2,7.11,16.85,9.79l0.05,0.06c0.05,0.04,0.1,0.08,0.14,0.13c0.9,0.89,1.57,1.94,2,3.12
				c1.03,2.76,0.58,5.83-1.19,8.19c-0.23,0.32-0.5,0.64-0.8,0.94c-0.31,0.31-0.63,0.58-0.96,0.82C19.79,24.17,18,24.77,16.12,24.77z
				 M11.11,20.52L11.11,20.52l0.25,0.24c0.74,0.76,1.54,1.27,2.43,1.59c2.13,0.79,4.52,0.44,6.31-0.9c0.26-0.19,0.5-0.4,0.73-0.63
				c0.22-0.22,0.43-0.46,0.61-0.71c1.38-1.83,1.72-4.18,0.92-6.31c-0.32-0.91-0.84-1.71-1.53-2.39l-0.27-0.27
				C18.12,8.69,11.57,2.73,4.97,2l3.68,3.64c0.65-0.55,1.54-0.72,2.29-0.37c0.69,0.31,2.13,1.09,3.82,2.76l1.22,1.21l-1.66,0.46
				c-1.09,0.3-2.1,0.89-2.9,1.69c-0.8,0.8-1.39,1.81-1.69,2.91l-0.46,1.67l-1.21-1.23c-1.65-1.68-2.45-3.12-2.78-3.84
				c-0.35-0.77-0.19-1.65,0.4-2.23L2.03,5.02C2.73,11.45,8.53,17.92,11.11,20.52z M15.9,19.31c-0.91,0-1.77-0.35-2.42-0.99
				c-1.33-1.34-1.33-3.51-0.01-4.84c1.31-1.3,3.55-1.29,4.84-0.01c1.33,1.34,1.33,3.51,0.01,4.84
				C17.67,18.96,16.81,19.31,15.9,19.31z M15.9,14.47c-0.38,0-0.74,0.15-1.01,0.42c-0.54,0.55-0.54,1.46,0.01,2.02
				c0.53,0.52,1.47,0.53,2.02-0.01c0.54-0.55,0.54-1.46-0.01-2.02C16.64,14.62,16.28,14.47,15.9,14.47z"/>
		</g>
	</g>
	<g>
		<g>
			<path class="st0" d="M15.9,19.31c-0.91,0-1.77-0.35-2.42-0.99c-1.33-1.34-1.33-3.51-0.01-4.84c1.31-1.3,3.55-1.29,4.84-0.01
				c1.33,1.34,1.33,3.51,0.01,4.84C17.67,18.96,16.81,19.31,15.9,19.31z M15.9,14.47c-0.38,0-0.74,0.15-1.01,0.42
				c-0.54,0.55-0.54,1.46,0.01,2.02c0.53,0.52,1.47,0.53,2.02-0.01c0.54-0.55,0.54-1.46-0.01-2.02
				C16.64,14.62,16.28,14.47,15.9,14.47z"/>
		</g>
	</g>
	<g>
		<g>
			<path class="st0" d="M15.9,19.31c-0.91,0-1.77-0.35-2.42-0.99c-1.33-1.34-1.33-3.51-0.01-4.84c1.31-1.3,3.55-1.29,4.84-0.01
				c1.33,1.34,1.33,3.51,0.01,4.84C17.67,18.96,16.81,19.31,15.9,19.31z M15.9,14.47c-0.38,0-0.74,0.15-1.01,0.42
				c-0.54,0.55-0.54,1.46,0.01,2.02c0.53,0.52,1.47,0.53,2.02-0.01c0.54-0.55,0.54-1.46-0.01-2.02
				C16.64,14.62,16.28,14.47,15.9,14.47z"/>
		</g>
	</g>
	<g>
		<g>
			<g>
				<path class="st0" d="M48.06,63.33l-0.17-0.06c-16.08-5.69-32.24-33.9-35.31-39.5l-1.3-2.36l2.52,0.94
					c2.09,0.78,4.5,0.43,6.29-0.9l1-0.75l0.51,1.14c12.91,28.83,29.04,37.39,29.2,37.47l0.35,0.18l0.14,0.36
					c0.39,1.05,0.12,1.78-0.18,2.21c-0.8,1.17-2.53,1.26-2.87,1.26L48.06,63.33z M15.42,24.74c4.31,7.49,18.98,31.47,32.95,36.58
					c0.44-0.04,0.97-0.2,1.09-0.38c0.01-0.02,0.02-0.04,0.02-0.07c-2.67-1.52-17.12-10.72-29.22-37.15
					C18.8,24.52,17.11,24.87,15.42,24.74z"/>
			</g>
		</g>
		<g>
			<g>
				<path class="st0" d="M60.86,51.48c-0.32,0-0.65-0.06-1-0.19l-0.36-0.13l-0.18-0.34c-0.08-0.16-8.71-16.33-37.48-29.2l-1.15-0.51
					l0.75-1c1.37-1.81,1.71-4.17,0.91-6.3l-0.94-2.52l2.36,1.3c5.6,3.08,33.81,19.24,39.5,35.31l0.06,0.17l0,0.18
					C63.31,49.8,62.52,51.48,60.86,51.48z M23.71,20.26c26.43,12.09,35.63,26.54,37.15,29.21c0.24-0.02,0.41-0.66,0.46-1.11
					c-5.11-13.97-29.08-28.63-36.57-32.95C24.89,17.09,24.54,18.78,23.71,20.26z"/>
			</g>
		</g>
	</g>
</g>
</svg>
