<?xml version="1.0" encoding="utf-8"?>
<!-- Generator: Adobe Illustrator 27.0.0, SVG Export Plug-In . SVG Version: 6.00 Build 0)  -->
<svg version="1.1" id="Layer_1" xmlns="http://www.w3.org/2000/svg" xmlns:xlink="http://www.w3.org/1999/xlink" x="0px" y="0px"
	 viewBox="0 0 41.39 60.22" style="enable-background:new 0 0 41.39 60.22;" xml:space="preserve">
<style type="text/css">
	.st0{fill:#555555;}
</style>
<g>
	<g>
		<g>
			<g>
				<path class="st0" d="M32.9,60.22L32.9,60.22c-1.43,0-2.91-1.09-2.91-2.92c0-2.44-0.26-4.81-0.77-7.05
					c-0.74-3.25-2.48-7.74-5.14-10.62c-0.85-0.92-2.09-1.46-3.38-1.46s-2.53,0.53-3.39,1.46c-2.66,2.87-4.39,7.37-5.14,10.62
					c-0.51,2.24-0.77,4.61-0.77,7.05c0,1.83-1.48,2.92-2.91,2.92c-1.22,0-2.25-0.73-2.69-1.89c-1.44-3.84-2.24-8.3-2.44-13.63
					c-0.15-4,0.4-8.41,0.84-11.96c0.26-2.11,0.49-3.93,0.46-4.91C4.6,25.9,3.78,24.5,2.82,22.89c-0.27-0.46-0.55-0.93-0.82-1.43
					c-1.5-2.78-1.77-5.1-1.97-7.85C-0.39,7.7,2.61,2.91,8.07,0.8C9.46,0.26,10.93,0,12.55,0c2.68,0,5.32,0.72,7.87,1.41l0.27,0.07
					l0.27-0.07C23.52,0.72,26.15,0,28.84,0c1.63,0,3.09,0.26,4.48,0.8c5.46,2.11,8.46,6.9,8.03,12.81c-0.2,2.75-0.47,5.07-1.97,7.85
					c-0.27,0.49-0.54,0.96-0.81,1.43c-0.95,1.62-1.78,3.02-1.83,4.95c-0.03,0.98,0.2,2.8,0.46,4.9c0.44,3.54,0.99,7.96,0.84,11.96
					c-0.21,5.32-1,9.78-2.44,13.63C35.15,59.49,34.12,60.22,32.9,60.22z M20.69,36.17c1.85,0,3.62,0.76,4.85,2.1
					c2.92,3.16,4.82,8.03,5.62,11.53c0.54,2.38,0.82,4.91,0.82,7.5c0,0.73,0.6,0.92,0.91,0.92l0,0c0.22,0,0.62-0.08,0.81-0.59
					c1.36-3.64,2.12-7.9,2.32-13c0.15-3.84-0.39-8.16-0.83-11.64c-0.29-2.28-0.51-4.08-0.48-5.21c0.07-2.44,1.11-4.2,2.11-5.9
					c0.26-0.44,0.52-0.89,0.78-1.36c1.31-2.43,1.54-4.45,1.73-7.04c0.36-4.99-2.16-9.03-6.75-10.8C31.44,2.22,30.21,2,28.84,2
					c-2.41,0-4.92,0.68-7.34,1.34l-0.8,0.22l-0.8-0.22C17.47,2.68,14.97,2,12.55,2c-1.38,0-2.61,0.22-3.76,0.66
					C4.2,4.44,1.67,8.48,2.03,13.47c0.19,2.59,0.42,4.61,1.73,7.04c0.25,0.47,0.52,0.92,0.78,1.36c1,1.7,2.04,3.46,2.11,5.9
					c0.03,1.13-0.19,2.93-0.48,5.21c-0.43,3.47-0.97,7.79-0.83,11.63c0.2,5.11,0.96,9.36,2.32,13c0.19,0.52,0.59,0.59,0.81,0.59
					c0.32,0,0.91-0.19,0.91-0.92c0-2.59,0.28-5.11,0.82-7.5c0.8-3.5,2.69-8.37,5.62-11.53C17.07,36.94,18.84,36.17,20.69,36.17z"/>
			</g>
		</g>
	</g>
	<g>
		<g>
			<path class="st0" d="M12.3,4.51c-0.05,6.71-7.58,6.71-7.58,6.71s7.53,0,7.58,6.71c0.05-6.71,7.58-6.71,7.58-6.71
				S12.35,11.22,12.3,4.51z"/>
		</g>
	</g>
	<g>
		<g>
			<path class="st0" d="M19.88,15.72c-0.02,3.35-3.79,3.35-3.79,3.35s3.77,0,3.79,3.35c0.02-3.35,3.79-3.35,3.79-3.35
				S19.9,19.07,19.88,15.72z"/>
		</g>
	</g>
	<g>
		<g>
			<path class="st0" d="M12.3,20.51c-0.02,3.35-3.79,3.35-3.79,3.35s3.77,0,3.79,3.35c0.02-3.35,3.79-3.35,3.79-3.35
				S12.32,23.86,12.3,20.51z"/>
		</g>
	</g>
</g>
</svg>
