<?xml version="1.0" encoding="utf-8"?>
<!-- Generator: Adobe Illustrator 27.0.0, SVG Export Plug-In . SVG Version: 6.00 Build 0)  -->
<svg version="1.1" id="Layer_1" xmlns="http://www.w3.org/2000/svg" xmlns:xlink="http://www.w3.org/1999/xlink" x="0px" y="0px"
	 viewBox="0 0 41.39 66.68" style="enable-background:new 0 0 41.39 66.68;" xml:space="preserve">
<style type="text/css">
	.st0{fill:#555555;}
</style>
<g>
	<g>
		<g>
			<path class="st0" d="M36.69,28.48h-32l-0.07-0.93c-0.13-1.79-0.91-3.14-1.83-4.69c-0.27-0.45-0.54-0.91-0.79-1.4
				c-1.5-2.78-1.77-5.1-1.97-7.85C-0.39,7.7,2.61,2.91,8.07,0.8C9.46,0.26,10.93,0,12.55,0c2.68,0,5.32,0.72,7.87,1.41l0.27,0.07
				l0.27-0.07C23.52,0.72,26.15,0,28.84,0c1.63,0,3.09,0.26,4.48,0.8c5.46,2.11,8.46,6.9,8.03,12.81c-0.2,2.75-0.47,5.07-1.97,7.85
				c-0.26,0.48-0.53,0.94-0.79,1.4c-0.91,1.56-1.7,2.9-1.83,4.7L36.69,28.48z M6.51,26.48h28.37c0.32-1.81,1.16-3.24,1.98-4.63
				c0.25-0.43,0.51-0.87,0.76-1.33c1.31-2.44,1.55-4.46,1.73-7.04c0.36-4.99-2.16-9.03-6.75-10.8C31.44,2.22,30.21,2,28.84,2
				c-2.41,0-4.92,0.68-7.34,1.34l-0.8,0.22l-0.8-0.22C17.47,2.68,14.97,2,12.55,2c-1.38,0-2.61,0.22-3.76,0.66
				C4.2,4.44,1.67,8.48,2.04,13.47c0.19,2.59,0.42,4.61,1.73,7.04c0.25,0.46,0.51,0.9,0.76,1.33C5.34,23.24,6.18,24.67,6.51,26.48z"
				/>
		</g>
	</g>
	<g>
		<g>
			<g>
				<path class="st0" d="M20.69,57.27c-0.8,0-1.5-0.02-2.14-0.07l0-1.99c1.46-0.11,2.81-0.11,4.27,0l0,1.99
					C22.19,57.25,21.49,57.27,20.69,57.27z"/>
			</g>
		</g>
		<g>
			<g>
				<path class="st0" d="M20.69,66.68c-3.73,0-7.01-3.8-7.1-6.17l-0.33-1.83l1.58,0.5c1.49,0.47,3.62,0.74,5.86,0.74
					c2.23,0,4.36-0.27,5.86-0.74l1.57-0.5l-0.33,1.83C27.71,62.89,24.43,66.68,20.69,66.68z M15.95,61.52
					c0.76,1.37,2.61,3.17,4.73,3.17c2.13,0,3.98-1.8,4.74-3.17C22.6,62.05,18.77,62.05,15.95,61.52z"/>
			</g>
		</g>
		<g>
			<g>
				<path class="st0" d="M20.69,39.56c-1.88,0-3.71-0.11-5.43-0.34c-1.84-0.25-3.42-0.6-4.7-1.05l-0.22-0.08
					c-0.08-0.03-0.16-0.06-0.23-0.09l-0.35-0.15c-0.25-0.1-0.47-0.21-0.69-0.33c-0.64-0.34-1.12-0.7-1.47-1.1
					c-0.08-0.1-0.14-0.18-0.2-0.27c-0.05-0.07-0.1-0.15-0.14-0.23c-0.07-0.12-0.12-0.24-0.15-0.32c-0.07-0.16-0.09-0.3-0.1-0.38
					c-0.02-0.11-0.03-0.25-0.03-0.36c0-0.13,0.01-0.27,0.04-0.4c0.02-0.11,0.04-0.21,0.09-0.31c0.19-0.56,0.61-1.07,1.3-1.55
					l0.34-0.21c0.1-0.06,0.22-0.13,0.34-0.2l-0.33-2.02h23.85l-0.31,2.03c0.25,0.13,0.51,0.28,0.78,0.47
					c0.21,0.15,0.34,0.26,0.46,0.37c0.11,0.1,0.23,0.23,0.33,0.36c0.04,0.05,0.14,0.16,0.22,0.31c0.1,0.15,0.17,0.31,0.22,0.46
					c0.04,0.09,0.06,0.18,0.07,0.28c0.03,0.13,0.04,0.27,0.04,0.4c0,0.11-0.02,0.24-0.03,0.35c-0.02,0.1-0.04,0.24-0.1,0.39
					c-0.03,0.08-0.07,0.19-0.15,0.32c-0.04,0.08-0.09,0.16-0.15,0.24c-0.05,0.08-0.11,0.15-0.16,0.22c-0.38,0.44-0.86,0.8-1.5,1.14
					c-0.1,0.05-0.23,0.12-0.34,0.17c-0.34,0.17-0.74,0.33-1.17,0.48c-1.27,0.44-2.85,0.79-4.69,1.05
					C24.39,39.45,22.57,39.56,20.69,39.56z M11.37,36.33c1.13,0.38,2.53,0.68,4.16,0.9c3.25,0.42,7.04,0.43,10.33,0
					c1.68-0.23,3.17-0.56,4.3-0.95c0.35-0.12,0.67-0.26,0.98-0.41c0.1-0.04,0.17-0.08,0.23-0.12c0.53-0.28,0.79-0.51,0.91-0.65
					l0.12-0.18l-0.03-0.11l0.01-0.08l-0.08-0.12c0.03,0.06,0.05,0.1,0.06,0.1l-0.07-0.08c-0.04-0.05-0.08-0.09-0.13-0.14
					c-0.09-0.09-0.15-0.13-0.22-0.18c-0.24-0.17-0.46-0.29-0.68-0.4c-0.1-0.05-0.19-0.09-0.27-0.13h-0.96l0.25-1.61H11.11l0.2,1.24
					l-0.74,0.3c-0.15,0.06-0.29,0.13-0.43,0.2c-0.13,0.06-0.24,0.12-0.35,0.19l-0.13,0.08c-0.05,0.03-0.1,0.06-0.15,0.09
					C9.07,34.59,9.01,34.77,9,34.8l-0.02,0.08c0,0,0,0.01,0,0.01l0.16,0.25c0.1,0.11,0.36,0.34,0.87,0.61
					c0.16,0.08,0.33,0.17,0.52,0.25l0.36,0.15c0.06,0.03,0.12,0.04,0.17,0.06L11.37,36.33z"/>
			</g>
		</g>
		<g>
			<g>
				<path class="st0" d="M31.93,34.32c-0.13-0.09-0.27-0.18-0.43-0.27c-0.08-0.04-0.17-0.09-0.26-0.13l0.86-1.8
					c0.13,0.06,0.24,0.12,0.36,0.18c0.23,0.13,0.45,0.26,0.63,0.4L31.93,34.32z"/>
			</g>
		</g>
		<g>
			<g>
				<path class="st0" d="M20.69,45.6c-3.48,0-6.81-0.45-9.13-1.23c-0.32-0.1-0.66-0.23-1.01-0.39l-0.25-0.11
					c-0.43-0.2-0.79-0.42-1.1-0.66c-0.13-0.1-0.2-0.16-0.25-0.21c-0.36-0.3-0.64-0.71-0.78-1.16c-0.06-0.21-0.09-0.41-0.09-0.61
					c0-0.16,0.02-0.31,0.06-0.46l0.01-0.04c0.05-0.22,0.14-0.39,0.21-0.53c0.09-0.16,0.19-0.31,0.32-0.45
					c0.2-0.23,0.46-0.45,0.78-0.69c0.11-0.07,0.19-0.12,0.28-0.18l0.28-0.15c0.03-0.02,0.07-0.04,0.1-0.06l-0.48-2.95l1.58,0.55
					c1.15,0.4,2.6,0.72,4.31,0.95c3.25,0.42,7.04,0.43,10.33,0c1.68-0.23,3.17-0.56,4.3-0.95l1.57-0.55l-0.46,2.94
					c0.04,0.02,0.07,0.04,0.11,0.06l0.28,0.15c0.09,0.05,0.17,0.1,0.26,0.16c0.35,0.25,0.61,0.47,0.81,0.71
					c0.12,0.13,0.22,0.28,0.31,0.44c0.08,0.14,0.17,0.32,0.21,0.53l0.02,0.09c0,0,0,0.01,0,0.01l0,0c0.03,0.12,0.04,0.25,0.04,0.39
					c0,0.2-0.03,0.38-0.09,0.59l-0.16,0.38c-0.03,0.07-0.07,0.13-0.12,0.19c-0.18,0.29-0.44,0.56-0.77,0.82
					c-0.15,0.11-0.31,0.22-0.49,0.33l-0.25,0.14c-0.29,0.16-0.6,0.3-0.94,0.43c-0.16,0.08-0.41,0.17-0.67,0.25
					C27.51,45.15,24.18,45.6,20.69,45.6z M10.09,41.17l-0.03,0.11c0.03,0.02,0.1,0.12,0.24,0.23l0.17,0.14
					c0.15,0.12,0.39,0.26,0.66,0.38l0.25,0.11c0.28,0.13,0.54,0.23,0.8,0.31c2.15,0.72,5.24,1.14,8.52,1.14
					c3.28,0,6.37-0.41,8.49-1.13c0.19-0.06,0.36-0.12,0.51-0.19c0.39-0.15,0.69-0.3,0.93-0.45l0.23-0.15
					c0.04-0.03,0.07-0.05,0.1-0.08c0.17-0.13,0.25-0.23,0.29-0.29l0.08-0.16l0-0.01l-0.04,0.01c-0.03-0.03-0.05-0.06-0.07-0.08
					c-0.11-0.12-0.26-0.25-0.46-0.39c-0.02-0.01-0.07-0.04-0.12-0.07l-0.21-0.11c-0.07-0.04-0.15-0.08-0.22-0.11l-0.08-0.04
					c-0.05-0.02-0.11-0.05-0.16-0.07l-0.93-0.39l0.2-1.27c-0.93,0.23-1.98,0.43-3.13,0.59c-3.46,0.45-7.42,0.45-10.86,0
					c-1.15-0.16-2.19-0.35-3.13-0.58l0.09,0.63v0.67l-0.82,0.35c-0.06,0.03-0.13,0.06-0.19,0.08l-0.05,0.03
					c-0.08,0.04-0.15,0.07-0.22,0.11l-0.19,0.1c-0.07,0.04-0.12,0.07-0.17,0.11c-0.17,0.13-0.33,0.26-0.43,0.37
					C10.14,41.11,10.12,41.14,10.09,41.17L10.09,41.17z"/>
			</g>
		</g>
		<g>
			<g>
				<path class="st0" d="M10.16,41.08L8.63,39.8c0.22-0.27,0.5-0.52,0.86-0.76l1.13,1.65C10.42,40.83,10.26,40.97,10.16,41.08z"/>
			</g>
		</g>
		<g>
			<g>
				<path class="st0" d="M31.22,41.08c-0.1-0.12-0.26-0.25-0.46-0.39l1.13-1.65c0.36,0.24,0.64,0.48,0.86,0.76L31.22,41.08z"/>
			</g>
		</g>
		<g>
			<g>
				<path class="st0" d="M20.69,51.76c-3.1,0-5.98-0.37-8.1-1.04c-0.5-0.16-0.94-0.33-1.31-0.5l-0.27-0.13
					c-0.46-0.23-0.83-0.48-1.14-0.76c-0.18-0.17-0.3-0.32-0.4-0.46c-0.1-0.15-0.22-0.34-0.3-0.58c-0.02-0.03-0.05-0.16-0.07-0.26
					c-0.03-0.14-0.03-0.27-0.03-0.35c0-0.19,0.03-0.37,0.08-0.53c0.05-0.18,0.12-0.35,0.22-0.51c0.05-0.09,0.15-0.23,0.27-0.38
					c0.03-0.05,0.11-0.13,0.21-0.21l0.15-0.13c0.23-0.2,0.51-0.38,0.85-0.57c0.09-0.05,0.19-0.1,0.29-0.15l-0.52-3.25l1.57,0.53
					c2.12,0.72,5.21,1.13,8.49,1.13c3.28,0,6.37-0.41,8.49-1.13l1.57-0.53l-0.52,3.25c0.1,0.05,0.2,0.1,0.3,0.15
					c0.34,0.19,0.62,0.37,0.85,0.57l0.14,0.12c0.11,0.09,0.2,0.18,0.27,0.28c0.07,0.08,0.17,0.21,0.25,0.36
					c0.08,0.12,0.15,0.29,0.19,0.46c0.05,0.17,0.08,0.34,0.08,0.53c0,0.21-0.03,0.4-0.09,0.59c-0.07,0.22-0.18,0.43-0.32,0.62
					c-0.11,0.18-0.3,0.38-0.55,0.58c-0.05,0.04-0.1,0.08-0.14,0.11l-0.16,0.12c-0.21,0.14-0.44,0.28-0.7,0.41l-0.23,0.11
					c-0.12,0.06-0.23,0.1-0.33,0.15l-0.18,0.08c-0.27,0.11-0.53,0.2-0.81,0.29C26.67,51.39,23.79,51.76,20.69,51.76z M11.08,47.69
					c0.07,0.1,0.12,0.15,0.18,0.2c0.13,0.12,0.36,0.27,0.65,0.41l0.25,0.12c0.27,0.12,0.62,0.26,1.04,0.39
					c1.9,0.6,4.64,0.94,7.5,0.94c2.86,0,5.59-0.34,7.5-0.94c0.22-0.07,0.44-0.14,0.63-0.22l0.2-0.08c0.08-0.03,0.15-0.06,0.22-0.1
					l0.23-0.11c0.17-0.08,0.3-0.16,0.41-0.24l0.21-0.16c0.11-0.09,0.15-0.14,0.15-0.15l0.05-0.09l-0.03-0.05l-0.24-0.23
					c-0.07-0.05-0.24-0.17-0.47-0.29c-0.24-0.14-0.55-0.26-0.79-0.35l-0.76-0.29l0.26-1.65c-2.14,0.51-4.81,0.79-7.58,0.79
					c-2.77,0-5.43-0.28-7.58-0.79l0.26,1.65l-0.77,0.29c-0.33,0.12-0.58,0.23-0.78,0.35c-0.23,0.13-0.4,0.24-0.53,0.35L11.08,47.69z
					"/>
			</g>
		</g>
		<g>
			<g>
				<path class="st0" d="M11.3,47.44l-1.29-1.53c0.27-0.22,0.56-0.42,0.88-0.58l0.94,1.76C11.6,47.22,11.43,47.33,11.3,47.44
					C11.3,47.44,11.3,47.44,11.3,47.44z"/>
			</g>
		</g>
		<g>
			<g>
				<path class="st0" d="M30.09,47.44C30.09,47.44,30.09,47.44,30.09,47.44c-0.13-0.11-0.31-0.23-0.53-0.35l0.94-1.76
					c0.31,0.16,0.61,0.36,0.88,0.58L30.09,47.44z"/>
			</g>
		</g>
		<g>
			<g>
				<path class="st0" d="M22.75,57.2l-0.07,0c-1.36-0.1-2.61-0.1-3.97,0l-0.07,0l-0.07,0c-1.94-0.12-3.7-0.41-5.08-0.83l-0.21-0.07
					c-0.15-0.05-0.29-0.1-0.43-0.15c-0.4-0.16-0.75-0.32-1.06-0.48c-0.84-0.46-1.35-1.02-1.52-1.68c-0.04-0.14-0.06-0.3-0.06-0.46
					c0-0.45,0.16-0.88,0.47-1.25c0,0,0.05-0.06,0.13-0.14c0.04-0.05,0.15-0.17,0.3-0.29c0.11-0.1,0.22-0.18,0.31-0.23
					c0.11-0.09,0.32-0.21,0.53-0.31c0.04-0.02,0.09-0.05,0.16-0.08l-0.45-2.88l1.54,0.48c1.91,0.6,4.64,0.94,7.5,0.94
					c2.86,0,5.59-0.34,7.5-0.94l1.54-0.49l-0.46,2.88c0.07,0.03,0.14,0.07,0.21,0.11c0.17,0.09,0.3,0.17,0.42,0.25
					c0.07,0.04,0.17,0.11,0.28,0.19c0.36,0.28,0.62,0.57,0.77,0.89c0.01,0.03,0.03,0.07,0.05,0.11l0.04,0.06l0.06,0.24
					c0.04,0.14,0.06,0.3,0.06,0.46c0,0.11-0.01,0.21-0.03,0.33c-0.11,0.52-0.45,1.22-1.55,1.81c-0.26,0.15-0.59,0.3-1.04,0.48
					c-0.2,0.08-0.42,0.15-0.67,0.22c-1.33,0.42-3.09,0.71-5.06,0.84L22.75,57.2z M20.69,55.12c0.67,0,1.36,0.03,2.07,0.08
					c1.79-0.12,3.36-0.38,4.54-0.75c0.2-0.06,0.35-0.1,0.49-0.16c0.31-0.13,0.59-0.25,0.83-0.38c0.33-0.18,0.47-0.32,0.52-0.39
					c-0.03-0.04-0.08-0.09-0.16-0.16c-0.05-0.04-0.1-0.08-0.16-0.11c-0.13-0.09-0.2-0.12-0.27-0.16c-0.11-0.06-0.22-0.11-0.33-0.16
					l-0.1-0.05c-0.06-0.02-0.17-0.07-0.3-0.11l-0.78-0.28l0.22-1.36c-1.89,0.41-4.16,0.63-6.57,0.63c-2.41,0-4.69-0.22-6.58-0.64
					l0.21,1.37l-0.77,0.28c-0.12,0.04-0.24,0.09-0.35,0.13c-0.15,0.07-0.25,0.11-0.33,0.16c-0.16,0.08-0.25,0.13-0.32,0.18
					l-0.33,0.28c0.03,0.03,0.16,0.18,0.51,0.37c0.25,0.13,0.53,0.26,0.85,0.38c0.1,0.04,0.22,0.08,0.34,0.12l0.19,0.06
					c1.18,0.36,2.76,0.62,4.52,0.73C19.33,55.15,20.03,55.12,20.69,55.12z"/>
			</g>
		</g>
		<g>
			<g>
				<path class="st0" d="M12.87,56.15c-0.45-0.16-0.81-0.33-1.12-0.51l0.98-1.74c0.25,0.13,0.54,0.26,0.85,0.38L12.87,56.15z"/>
			</g>
		</g>
		<g>
			<g>
				<path class="st0" d="M20.69,57.27c-0.8,0-1.5-0.02-2.14-0.07l0-1.99c1.46-0.11,2.81-0.11,4.27,0l0,1.99
					C22.19,57.25,21.49,57.27,20.69,57.27z"/>
			</g>
		</g>
		<g>
			<g>
				<path class="st0" d="M28.51,56.15l-0.71-1.87c0.31-0.12,0.59-0.24,0.83-0.38l1,1.73C29.31,55.83,28.95,55.99,28.51,56.15z"/>
			</g>
		</g>
		<g>
			<g>
				<path class="st0" d="M20.69,61.93c-2.43,0-4.79-0.3-6.46-0.84l-0.7-0.26c-0.93-0.38-1.55-0.84-1.87-1.4l-0.12-0.24
					c-0.1-0.22-0.14-0.43-0.14-0.67c0-0.16,0.02-0.31,0.07-0.47c0.12-0.41,0.38-0.78,0.74-1.07c0.07-0.06,0.19-0.15,0.31-0.23
					c0.08-0.06,0.23-0.16,0.38-0.23c0.01-0.01,0.02-0.01,0.04-0.02l-0.4-2.51l1.53,0.47c1.23,0.38,2.83,0.63,4.62,0.75
					c0.6,0.05,1.25,0.07,2,0.07s1.39-0.02,1.98-0.07c1.83-0.12,3.42-0.38,4.63-0.76l1.54-0.49l-0.41,2.54
					c0.02,0.01,0.03,0.02,0.04,0.03c0.12,0.06,0.24,0.14,0.36,0.22c0.14,0.09,0.25,0.18,0.35,0.26c0.34,0.27,0.59,0.64,0.71,1.04
					c0.05,0.18,0.07,0.33,0.07,0.49c0,0.38-0.13,0.75-0.36,1.07c-0.06,0.1-0.2,0.26-0.35,0.4c-0.33,0.31-0.81,0.6-1.41,0.84v0.03
					l-0.7,0.23C25.47,61.62,23.11,61.93,20.69,61.93z M15,59.24c1.48,0.44,3.54,0.69,5.7,0.69c2.16,0,4.23-0.25,5.72-0.7l0.09-0.04
					c0.06-0.02,0.12-0.04,0.18-0.06l0.29-0.1c0.54-0.2,0.81-0.39,0.93-0.5c-0.06-0.05-0.11-0.09-0.16-0.12
					c-0.05-0.04-0.11-0.08-0.17-0.11l-0.09-0.05c-0.03-0.02-0.06-0.04-0.1-0.06c-0.15-0.07-0.27-0.12-0.39-0.17l-0.77-0.29l0.16-1
					c-1.06,0.22-2.26,0.37-3.56,0.45c-0.63,0.05-1.33,0.07-2.12,0.07s-1.5-0.02-2.14-0.07c-1.28-0.08-2.48-0.23-3.55-0.45l0.16,1
					l-0.77,0.29c-0.13,0.05-0.24,0.09-0.36,0.15c-0.07,0.03-0.11,0.05-0.14,0.07l-0.09,0.05c-0.05,0.03-0.1,0.05-0.14,0.08
					c-0.09,0.06-0.14,0.1-0.18,0.14c0,0-0.01,0.01-0.01,0.01c0.12,0.11,0.38,0.29,0.94,0.51l0.21,0.07
					c0.13,0.04,0.19,0.06,0.25,0.08L15,59.24z"/>
			</g>
		</g>
		<g>
			<g>
				<path class="st0" d="M15.53,61.58l-1.58-0.59l0.31-0.85l-0.73-0.01h0.73l0.37-1.02c0.13,0.04,0.19,0.06,0.25,0.08l0.65,0.24
					V61.58z"/>
			</g>
		</g>
		<g>
			<g>
				<path class="st0" d="M20.69,57.27c-0.8,0-1.5-0.02-2.14-0.07l0-1.99c1.46-0.11,2.81-0.11,4.27,0l0,1.99
					C22.19,57.25,21.49,57.27,20.69,57.27z"/>
			</g>
		</g>
		<g>
			<g>
				<path class="st0" d="M25.85,61.59v-2.15l0.65-0.24c0.06-0.02,0.12-0.04,0.18-0.06l0,0l0.07-0.03l0.38,1.02h0.73l-0.73,0.01
					l0.31,0.85L25.85,61.59z"/>
			</g>
		</g>
	</g>
	<g>
		<g>
			<g>
				<path class="st0" d="M5.99,20.5c-0.36,0-0.7-0.19-0.88-0.53c-1.13-2.09-1.33-3.83-1.48-5.89c-0.15-2.14,0.3-4.14,1.3-5.81
					c0.29-0.47,0.9-0.62,1.37-0.34c0.47,0.29,0.62,0.9,0.34,1.37c-0.79,1.31-1.14,2.91-1.02,4.63c0.14,1.88,0.31,3.34,1.25,5.08
					c0.26,0.49,0.08,1.09-0.41,1.36C6.31,20.47,6.15,20.5,5.99,20.5z"/>
			</g>
		</g>
		<g>
			<g>
				<path class="st0" d="M7.65,7.68c-0.26,0-0.52-0.1-0.72-0.3c-0.38-0.4-0.38-1.03,0.02-1.41c0.97-0.94,1.5-1.2,2.82-1.61
					c0.53-0.16,1.09,0.13,1.25,0.66c0.16,0.53-0.13,1.09-0.66,1.25C9.26,6.61,9.03,6.74,8.35,7.4C8.16,7.59,7.9,7.68,7.65,7.68z"/>
			</g>
		</g>
	</g>
</g>
</svg>
