<?xml version="1.0" encoding="utf-8"?>
<!-- Generator: Adobe Illustrator 27.0.0, SVG Export Plug-In . SVG Version: 6.00 Build 0)  -->
<svg version="1.1" id="Layer_1" xmlns="http://www.w3.org/2000/svg" xmlns:xlink="http://www.w3.org/1999/xlink" x="0px" y="0px"
	 viewBox="0 0 42.45 61.79" style="enable-background:new 0 0 42.45 61.79;" xml:space="preserve">
<style type="text/css">
	.st0{fill:#555555;}
</style>
<g>
	<g>
		<g>
			<g>
				<path class="st0" d="M33.76,61.79L33.76,61.79c-1.46,0-2.96-1.11-2.96-2.97c0-2.51-0.27-4.95-0.79-7.25
					c-0.76-3.34-2.55-7.96-5.28-10.92c-0.88-0.96-2.16-1.5-3.5-1.5c-1.34,0-2.61,0.55-3.5,1.5c-2.73,2.95-4.52,7.58-5.28,10.92
					c-0.52,2.3-0.79,4.74-0.79,7.25c0,1.86-1.51,2.97-2.96,2.97c-1.24,0-2.29-0.74-2.73-1.93c-1.48-3.95-2.3-8.52-2.51-13.99
					c-0.16-4.11,0.41-8.64,0.86-12.28c0.27-2.16,0.5-4.03,0.47-5.04c-0.06-1.98-0.91-3.42-1.88-5.09C2.62,22.99,2.33,22.51,2.06,22
					c-1.53-2.85-1.81-5.23-2.02-8.05C-0.4,7.89,2.68,2.98,8.27,0.82C9.69,0.27,11.2,0,12.86,0c2.75,0,5.46,0.74,8.08,1.45l0.29,0.08
					l0.29-0.08C24.13,0.74,26.84,0,29.59,0c1.67,0,3.17,0.27,4.6,0.82c5.59,2.16,8.67,7.07,8.23,13.13c-0.2,2.82-0.48,5.2-2.02,8.05
					c-0.27,0.51-0.56,0.99-0.84,1.47c-0.98,1.67-1.83,3.1-1.89,5.09c-0.03,1.01,0.2,2.88,0.47,5.04c0.46,3.64,1.02,8.17,0.86,12.28
					c-0.21,5.47-1.03,10.04-2.51,13.99C36.05,61.05,35.01,61.79,33.76,61.79z M21.23,37.15c1.89,0,3.7,0.78,4.97,2.14
					c3,3.24,4.94,8.24,5.76,11.83c0.56,2.45,0.84,5.03,0.84,7.69c0,0.77,0.63,0.97,0.96,0.97l0,0c0.23,0,0.66-0.08,0.86-0.63
					c1.4-3.74,2.18-8.12,2.38-13.37c0.15-3.94-0.4-8.39-0.85-11.95c-0.29-2.34-0.52-4.19-0.49-5.35c0.08-2.5,1.14-4.3,2.16-6.04
					c0.27-0.45,0.54-0.92,0.8-1.4c1.35-2.5,1.59-4.58,1.78-7.24c0.37-5.14-2.23-9.3-6.95-11.12C32.27,2.22,31.01,2,29.59,2
					c-2.48,0-5.06,0.7-7.55,1.38L21.23,3.6l-0.81-0.22C17.92,2.7,15.35,2,12.86,2c-1.42,0-2.68,0.22-3.88,0.68
					C4.26,4.51,1.66,8.67,2.04,13.81c0.19,2.66,0.44,4.74,1.79,7.24c0.26,0.49,0.53,0.95,0.8,1.4C5.65,24.2,6.71,26,6.78,28.5
					c0.03,1.16-0.2,3.01-0.49,5.35c-0.45,3.57-1,8.01-0.85,11.96c0.2,5.25,0.98,9.62,2.38,13.36c0.21,0.55,0.63,0.63,0.86,0.63
					c0.33,0,0.96-0.2,0.96-0.97c0-2.66,0.29-5.25,0.84-7.69c0.82-3.59,2.76-8.59,5.76-11.83C17.52,37.93,19.33,37.15,21.23,37.15z"
					/>
			</g>
		</g>
	</g>
	<g>
		<g>
			<path class="st0" d="M30.6,32.38L30.6,32.38c-0.57,0-1.24-0.34-2.35-0.91c-1.77-0.9-4.44-2.26-7.03-2.28c0,0,0,0,0,0
				c-2.71,0-5.49,1.29-7.33,2.15c-1.27,0.59-1.91,0.88-2.47,0.88c-0.56,0-1.02-0.31-1.19-0.82c-0.31-0.92-0.41-3.1-0.5-5.65
				C9.71,25,9.69,24.38,9.66,24.06c-0.23-2.55,1.71-4.84,4.96-5.83c0.58-0.18,1.28-0.26,2.15-0.26c1.81,0,3.79,0.38,4.45,0.52
				c0.66-0.14,2.65-0.52,4.45-0.52c0.87,0,1.58,0.09,2.16,0.26c3.24,0.99,5.19,3.28,4.96,5.83c-0.09,1.02-0.58,6.15-1.03,7.51
				C31.6,32.06,31.14,32.38,30.6,32.38z M21.17,27.19c3.13,0.02,6.06,1.51,7.99,2.5c0.29,0.15,0.61,0.31,0.88,0.44
				c0.25-1.39,0.55-4.01,0.75-6.25c0.17-1.9-1.72-3.18-3.55-3.74c-0.37-0.12-0.92-0.18-1.57-0.18c-1.93,0-4.21,0.51-4.23,0.52
				l-0.22,0.05l-0.22-0.05c-0.02-0.01-2.3-0.52-4.23-0.52c-0.65,0-1.19,0.06-1.57,0.18c-1.83,0.56-3.73,1.84-3.55,3.74
				c0.03,0.34,0.05,1,0.08,1.8c0.04,1.19,0.11,3.17,0.25,4.33c0.32-0.14,0.71-0.32,1.06-0.48C15.05,28.6,18.07,27.19,21.17,27.19z"
				/>
		</g>
	</g>
	<g>
		<g>
			<path class="st0" d="M8.15,60.94c-3.25-15.7,1.88-29.63,2.1-30.21l1.87,0.7c-0.05,0.14-5.14,13.99-2.01,29.11L8.15,60.94z"/>
		</g>
	</g>
	<g>
		<g>
			<path class="st0" d="M34.3,60.94l-1.96-0.4c3.43-16.96-2.6-29.58-2.67-29.71l1.8-0.88C31.74,30.5,37.86,43.32,34.3,60.94z"/>
		</g>
	</g>
	<g>
		<g>
			<g>
				<path class="st0" d="M40.44,16.41c-0.66,0-1.26-0.34-1.62-0.9c-1.2-1.89-3.05-3.36-5.36-4.25c-1.19-0.46-2.46-0.68-3.88-0.68
					c-2.49,0-5.06,0.7-7.55,1.38l-0.81,0.22l-0.81-0.22c-2.49-0.68-5.07-1.38-7.55-1.38c-1.42,0-2.68,0.22-3.88,0.68
					c-2.25,0.87-4.08,2.3-5.28,4.13c-0.37,0.57-0.99,0.91-1.66,0.91l0,0c-1.04,0-1.88-0.78-1.96-1.81l-0.04-0.53
					C-0.4,7.89,2.68,2.98,8.27,0.82C9.69,0.27,11.2,0,12.86,0c2.75,0,5.46,0.74,8.08,1.45l0.29,0.08l0.29-0.08
					C24.13,0.74,26.84,0,29.59,0c1.67,0,3.17,0.27,4.6,0.82c5.59,2.16,8.67,7.07,8.23,13.13l-0.05,0.69
					C42.28,15.65,41.45,16.41,40.44,16.41z M12.86,2c-1.42,0-2.68,0.22-3.88,0.68C4.26,4.51,1.66,8.67,2.04,13.81l0.04,0.52
					c1.39-2.22,3.54-3.91,6.19-4.93c1.43-0.55,2.93-0.82,4.6-0.82c2.75,0,5.46,0.74,8.08,1.45l0.28,0.08l0.28-0.08
					c2.62-0.71,5.33-1.45,8.08-1.45c1.67,0,3.17,0.27,4.6,0.82c2.63,1.01,4.77,2.69,6.2,4.85l0.03-0.44
					c0.37-5.14-2.23-9.29-6.95-11.12C32.27,2.22,31.01,2,29.59,2c-2.48,0-5.06,0.7-7.55,1.38L21.23,3.6l-0.81-0.22
					C17.92,2.7,15.35,2,12.86,2z"/>
			</g>
		</g>
	</g>
</g>
</svg>
