<?xml version="1.0" encoding="utf-8"?>
<!-- Generator: Adobe Illustrator 27.0.0, SVG Export Plug-In . SVG Version: 6.00 Build 0)  -->
<svg version="1.1" id="Layer_1" xmlns="http://www.w3.org/2000/svg" xmlns:xlink="http://www.w3.org/1999/xlink" x="0px" y="0px"
	 viewBox="0 0 70.38 34.64" style="enable-background:new 0 0 70.38 34.64;" xml:space="preserve">
<style type="text/css">
	.st0{fill:#555555;}
</style>
<g>
	<g>
		<g>
			<path class="st0" d="M35.68,20.67l-0.78-0.96c-1.51-1.86-3.75-2.93-6.14-2.93c-2.2,0-4.24,0.89-5.75,2.49l-0.89,0.94l-0.69-1.1
				c-1.21-1.92-3.01-3.03-4.95-3.03c-1.45,0-2.81,0.6-3.94,1.74l-1.02,1.02l-0.6-1.31c-0.98-2.13-2.63-3.41-4.4-3.41
				c-1.5,0-2.52,0.3-3.56,1.89c-0.3,0.46-0.81,0.74-1.35,0.74l0,0c-0.9,0-1.61-0.71-1.61-1.61V0h70.38v14.28
				c0,0.88-0.71,1.59-1.59,1.59c-0.41,0-0.81-0.16-1.11-0.45c-0.86-0.83-1.87-1.27-2.93-1.27c-1.77,0-3.36,1.21-4.36,3.32l-0.6,1.26
				l-1-0.97c-1.12-1.08-2.45-1.66-3.85-1.66c-1.96,0-3.78,1.12-4.98,3.08l-0.69,1.12l-0.89-0.97c-1.49-1.62-3.61-2.54-5.8-2.54
				c-2.39,0-4.62,1.07-6.14,2.93L35.68,20.67z M28.76,14.78c2.61,0,5.07,1.01,6.91,2.82c1.84-1.8,4.3-2.82,6.91-2.82
				c2.34,0,4.61,0.84,6.39,2.34c1.55-1.92,3.72-3.03,5.98-3.03c1.5,0,2.98,0.49,4.26,1.4c1.36-2.12,3.37-3.35,5.55-3.35
				c1.3,0,2.54,0.43,3.63,1.24V2H2v12c1.15-1.31,2.53-1.86,4.53-1.86c2.21,0,4.23,1.26,5.6,3.42c1.3-0.96,2.81-1.47,4.36-1.47
				c2.28,0,4.39,1.07,5.95,2.99C24.2,15.61,26.45,14.78,28.76,14.78z"/>
		</g>
	</g>
	<g>
		<g>
			<g>
				<path class="st0" d="M33.76,34.64H23.68c-1.34,0-2.43-1.09-2.43-2.43v-7.93h0.13c0.63-3.51,3.69-6.14,7.34-6.14
					s6.71,2.63,7.34,6.14h0.11l0.02,1v6.93C36.19,33.55,35.1,34.64,33.76,34.64z M23.25,25.63v6.58c0,0.24,0.19,0.43,0.43,0.43
					h10.08c0.24,0,0.43-0.19,0.43-0.43l-0.02-6.88c-0.15-2.91-2.54-5.19-5.46-5.19c-2.91,0-5.31,2.28-5.46,5.19L23.25,25.63z"/>
			</g>
		</g>
		<g>
			<g>
				<path class="st0" d="M47.58,34.64H37.51c-1.34,0-2.43-1.09-2.43-2.43v-7.93h0.13c0.63-3.51,3.69-6.14,7.34-6.14
					s6.71,2.63,7.34,6.14H50l0.02,1v6.93C50.02,33.55,48.92,34.64,47.58,34.64z M37.07,25.63v6.58c0,0.24,0.19,0.43,0.43,0.43h10.08
					c0.24,0,0.43-0.19,0.43-0.43L48,25.33c-0.15-2.91-2.54-5.19-5.46-5.19c-2.91,0-5.31,2.28-5.46,5.19L37.07,25.63z"/>
			</g>
		</g>
		<g>
			<g>
				<path class="st0" d="M58.7,33.95h-7.57c-1.16,0-2.08-1.07-2.08-2.43v-7.93h0.1c0.49-3.51,2.89-6.14,5.76-6.14
					c2.87,0,5.27,2.63,5.76,6.14h0.09l0.01,1v6.93C60.77,32.89,59.86,33.95,58.7,33.95z M51.05,24.92v6.6
					c0,0.27,0.11,0.42,0.15,0.45l7.45-0.02c0.05-0.05,0.13-0.2,0.13-0.43l-0.01-6.9c-0.11-2.85-1.84-5.18-3.85-5.18
					c-2.01,0-3.74,2.32-3.85,5.18L51.05,24.92z"/>
			</g>
		</g>
		<g>
			<g>
				<path class="st0" d="M67.74,32h-6.06c-1.06,0-1.86-1.05-1.86-2.43v-7.93h0.08c0.4-3.56,2.37-6.14,4.81-6.14
					c2.66,0,4.75,3.05,4.88,7.11l0.01,6.96C69.61,30.96,68.81,32,67.74,32z M61.91,30h5.62c0.04-0.09,0.08-0.23,0.08-0.43
					l-0.01-6.93c-0.09-3.06-1.56-5.14-2.88-5.14c-1.31,0-2.78,2.08-2.88,5.17l-0.01,0.32v6.58C61.83,29.77,61.87,29.92,61.91,30z"/>
			</g>
		</g>
		<g>
			<g>
				<path class="st0" d="M9.51,32H3.46C2.4,32,1.6,30.96,1.6,29.57v-7.93h0.08c0.4-3.56,2.37-6.14,4.81-6.14
					c2.44,0,4.41,2.58,4.81,6.14h0.07l0.01,1v6.93C11.37,30.96,10.57,32,9.51,32z M3.67,30H9.3c0.04-0.09,0.08-0.23,0.08-0.43
					l-0.01-6.9C9.27,19.58,7.8,17.5,6.49,17.5c-1.31,0-2.78,2.08-2.88,5.17l-0.01,0.3v6.6C3.6,29.77,3.64,29.92,3.67,30z"/>
			</g>
		</g>
		<g>
			<g>
				<path class="st0" d="M20.23,33.95h-7.57c-1.16,0-2.08-1.07-2.08-2.43v-7.93h0.1c0.49-3.51,2.89-6.14,5.76-6.14
					s5.27,2.63,5.76,6.14h0.09l0.01,1v6.93C22.31,32.89,21.39,33.95,20.23,33.95z M12.58,24.94v6.58c0,0.27,0.11,0.42,0.15,0.45
					l7.45-0.02c0.05-0.05,0.13-0.2,0.13-0.43l-0.01-6.9c-0.11-2.85-1.84-5.18-3.85-5.18s-3.74,2.32-3.85,5.18L12.58,24.94z"/>
			</g>
		</g>
	</g>
	<g>
		<g>
			<path class="st0" d="M29.87,30.2h-2.3c-0.89,0-1.61-0.72-1.61-1.61v-2.3c0-0.89,0.72-1.61,1.61-1.61h2.3
				c0.89,0,1.61,0.72,1.61,1.61v2.3C31.48,29.48,30.76,30.2,29.87,30.2z"/>
		</g>
	</g>
	<g>
		<g>
			<path class="st0" d="M43.75,30.25h-2.3c-0.89,0-1.61-0.72-1.61-1.61v-2.3c0-0.89,0.72-1.61,1.61-1.61h2.3
				c0.89,0,1.61,0.72,1.61,1.61v2.3C45.36,29.53,44.64,30.25,43.75,30.25z"/>
		</g>
	</g>
	<g>
		<g>
			<path class="st0" d="M55.96,28.86h-1.92c-0.74,0-1.34-0.6-1.34-1.34v-1.92c0-0.74,0.6-1.34,1.34-1.34h1.92
				c0.74,0,1.34,0.6,1.34,1.34v1.92C57.3,28.26,56.7,28.86,55.96,28.86z"/>
		</g>
	</g>
	<g>
		<g>
			<path class="st0" d="M65.55,26.6h-1.58c-0.61,0-1.1-0.49-1.1-1.1v-1.58c0-0.61,0.49-1.1,1.1-1.1h1.58c0.61,0,1.1,0.49,1.1,1.1
				v1.58C66.65,26.1,66.16,26.6,65.55,26.6z"/>
		</g>
	</g>
	<g>
		<g>
			<path class="st0" d="M7.35,26.6H5.77c-0.61,0-1.1-0.49-1.1-1.1v-1.58c0-0.61,0.49-1.1,1.1-1.1h1.58c0.61,0,1.1,0.49,1.1,1.1v1.58
				C8.45,26.1,7.96,26.6,7.35,26.6z"/>
		</g>
	</g>
	<g>
		<g>
			<path class="st0" d="M17.4,28.86h-1.92c-0.74,0-1.34-0.6-1.34-1.34v-1.92c0-0.74,0.6-1.34,1.34-1.34h1.92
				c0.74,0,1.34,0.6,1.34,1.34v1.92C18.74,28.26,18.14,28.86,17.4,28.86z"/>
		</g>
	</g>
	<g>
		<g>
			<path class="st0" d="M35.5,27.47c-18.54,0-33.58-3-33.58-6.71v1.08c0,3.71,15.03,6.71,33.58,6.71c18.54,0,33.58-3,33.58-6.71
				v-1.08C69.07,24.47,54.04,27.47,35.5,27.47z"/>
		</g>
	</g>
	<g>
		<g>
			<path class="st0" d="M58.99,14.34l-1-0.97c-0.71-0.69-1.5-1.17-2.35-1.43c-0.53-0.16-0.82-0.72-0.66-1.25
				c0.16-0.53,0.72-0.83,1.25-0.66c0.8,0.25,1.55,0.63,2.25,1.14c1.31-1.63,4.08-3.76,7.56-2.79c0.53,0.15,0.84,0.7,0.7,1.23
				c-0.15,0.53-0.7,0.84-1.23,0.7c-3.31-0.92-5.67,2.26-5.91,2.77L58.99,14.34z"/>
		</g>
	</g>
	<g>
		<g>
			<path class="st0" d="M48.87,15.77l-0.89-0.97c-0.89-0.96-2.01-1.69-3.23-2.11c-0.52-0.18-0.8-0.75-0.62-1.27
				c0.18-0.52,0.75-0.8,1.27-0.62c1.15,0.4,2.23,1.01,3.17,1.8c0.6-0.74,1.29-1.37,2.05-1.85c0.46-0.3,1.08-0.16,1.38,0.3
				c0.3,0.46,0.16,1.08-0.3,1.38c-0.82,0.53-1.56,1.3-2.13,2.22L48.87,15.77z"/>
		</g>
	</g>
	<g>
		<g>
			<path class="st0" d="M35.66,16.15l-0.78-0.96c-0.7-0.86-2.56-2.83-4.89-2.6c-0.55,0.05-1.04-0.35-1.09-0.9
				c-0.05-0.55,0.35-1.04,0.9-1.09c2.56-0.25,4.58,1.18,5.85,2.46c1.86-1.92,3.84-2.64,5.91-2.16c0.54,0.13,0.87,0.66,0.75,1.2
				c-0.13,0.54-0.67,0.87-1.2,0.75c-2.08-0.48-3.67,1.1-4.67,2.34L35.66,16.15z"/>
		</g>
	</g>
	<g>
		<g>
			<path class="st0" d="M22.72,15.7l-0.69-1.1c-0.66-1.04-1.51-1.87-2.48-2.39c-0.49-0.26-0.67-0.87-0.41-1.35
				c0.26-0.49,0.87-0.67,1.35-0.41c0.95,0.51,1.8,1.23,2.53,2.11c0.88-0.73,1.89-1.32,2.96-1.71c0.52-0.19,1.09,0.08,1.28,0.6
				c0.19,0.52-0.08,1.09-0.6,1.28c-1.16,0.42-2.22,1.12-3.06,2.02L22.72,15.7z"/>
		</g>
	</g>
	<g>
		<g>
			<path class="st0" d="M12.13,14.34l-0.6-1.31c-0.47-1.02-3.01-3.68-6.59-2.73C4.4,10.45,3.85,10.13,3.71,9.6
				C3.56,9.06,3.88,8.51,4.42,8.37c3.72-0.99,6.77,0.95,8.22,2.74c1.32-1,2.86-1.53,4.44-1.53c0.55,0,1,0.45,1,1s-0.45,1-1,1
				c-1.45,0-2.81,0.6-3.94,1.74L12.13,14.34z"/>
		</g>
	</g>
</g>
</svg>
