<?xml version="1.0" encoding="utf-8"?>
<!-- Generator: Adobe Illustrator 27.0.0, SVG Export Plug-In . SVG Version: 6.00 Build 0)  -->
<svg version="1.1" id="Layer_1" xmlns="http://www.w3.org/2000/svg" xmlns:xlink="http://www.w3.org/1999/xlink" x="0px" y="0px"
	 viewBox="0 0 57.33 57.63" style="enable-background:new 0 0 57.33 57.63;" xml:space="preserve">
<style type="text/css">
	.st0{fill:#555555;}
</style>
<g>
	<g>
		<g>
			<path class="st0" d="M28.66,28.78c-6.42,0-11.64-7.33-11.64-16.35C17.02,4.42,21.15,0,28.66,0c7.51,0,11.65,4.42,11.65,12.43
				C40.31,21.45,35.08,28.78,28.66,28.78z M28.66,2c-6.4,0-9.64,3.51-9.64,10.43c0,7.91,4.33,14.35,9.64,14.35
				c5.32,0,9.65-6.44,9.65-14.35C38.31,5.51,35.06,2,28.66,2z"/>
		</g>
	</g>
	<g>
		<g>
			<path class="st0" d="M27.55,57.63c-10.57,0-25.99-3.53-26.64-3.68L0,53.74l0.16-0.93c1.3-7.79,3.82-14.16,4.55-15.92
				c0.04-0.08,0.06-0.13,0.07-0.17l0.15-0.3c1.74-3.27,6.53-5.96,13.16-7.4l0.81-0.18l9.59,23.06h0.31l9.59-23.06l0.81,0.18
				c6.64,1.44,11.43,4.13,13.17,7.4l0.02,0.03c0.03,0.05,0.08,0.14,0.13,0.25l0.03,0.07l-0.88,0.48l0.92-0.39
				c0.52,1.23,3.2,7.78,4.56,15.93l0.16,0.95l-0.95,0.19c-0.7,0.14-17.31,3.49-27.7,3.66C28.32,57.63,27.94,57.63,27.55,57.63z
				 M2.29,52.21c3.67,0.8,17.43,3.65,26.34,3.41c8.82-0.14,22.66-2.71,26.39-3.43c-1.36-7.48-3.77-13.37-4.26-14.52v0
				c0,0-0.02-0.05-0.04-0.1l-0.06-0.11c-1.33-2.62-5.43-4.95-11.06-6.29l-9.46,22.75h-2.97l-9.46-22.75
				c-5.63,1.34-9.73,3.67-11.06,6.29l-0.07,0.13c-0.02,0.05-0.04,0.09-0.06,0.14C5.87,39.31,3.59,45.06,2.29,52.21z"/>
		</g>
	</g>
	<g>
		<g>
			<path class="st0" d="M30.15,53.92h-2.97l-2.43-5.85l1.53-11.13l-3.36-3.36l5.75-3.27l5.74,3.27l-3.35,3.36l1.53,11.13
				L30.15,53.92z M28.51,51.92h0.31l1.71-4.11l-1.59-11.57l2.2-2.2l-2.48-1.41l-2.48,1.41l2.2,2.2L26.8,47.8L28.51,51.92z"/>
		</g>
	</g>
	<g>
		<g>
			<path class="st0" d="M19.01,13.43c-0.54,0-1.06-0.24-1.41-0.65c-0.35-0.41-0.5-0.96-0.42-1.49c0.66-4.15,0.95-4.84,1.05-5.07
				l0.99-1.85C21.18,1.51,24.48,0,28.77,0c5.1,0,9.44,3.35,11.06,8.53c0.17,0.55,0.07,1.15-0.27,1.61
				c-0.34,0.46-0.86,0.73-1.44,0.73l0,0c-3.02-0.09-4.96-1.52-6.02-2.63c-3.17,5.01-8.38,5.11-12.26,5.18L19.01,13.43z M20.91,5.46
				l-0.87,1.62c-0.1,0.25-0.41,1.59-0.85,4.35l0.61-0.01c4.1-0.08,8.75-0.16,11.25-5.42l0.84-1.77l0.94,1.72
				c0.06,0.11,1.54,2.67,4.99,2.91C36.4,4.62,32.95,2,28.77,2C25.14,2,22.5,3.16,20.91,5.46z"/>
		</g>
	</g>
	<g>
		<g>
			<path class="st0" d="M29.74,53.92c-0.28,0-0.55-0.11-0.75-0.34c-0.37-0.41-0.33-1.04,0.08-1.41l10.78-9.58l-2.43-3.33
				c-0.17-0.24-0.23-0.54-0.17-0.82c0.07-0.28,0.26-0.53,0.52-0.66l3.79-1.94l-2.76-4.34c-0.3-0.47-0.16-1.08,0.31-1.38
				c0.46-0.3,1.08-0.16,1.38,0.31l3.34,5.26c0.15,0.24,0.2,0.53,0.12,0.8s-0.26,0.5-0.51,0.63l-3.73,1.91L42,42.14
				c0.3,0.42,0.24,1-0.14,1.34L30.4,53.66C30.21,53.83,29.97,53.92,29.74,53.92z"/>
		</g>
	</g>
	<g>
		<g>
			<path class="st0" d="M27.46,53.92c-0.24,0-0.47-0.08-0.66-0.25L15.34,43.48c-0.39-0.34-0.45-0.92-0.14-1.34l2.28-3.12l-3.73-1.91
				c-0.25-0.13-0.43-0.36-0.51-0.63c-0.07-0.27-0.03-0.56,0.12-0.8l3.34-5.26c0.3-0.47,0.91-0.6,1.38-0.31
				c0.47,0.3,0.6,0.91,0.31,1.38l-2.76,4.34l3.79,1.94c0.26,0.13,0.45,0.38,0.52,0.66c0.07,0.29,0.01,0.58-0.16,0.82l-2.43,3.33
				l10.78,9.58c0.41,0.37,0.45,1,0.08,1.41C28.01,53.8,27.74,53.92,27.46,53.92z"/>
		</g>
	</g>
</g>
</svg>
