<?xml version="1.0" encoding="utf-8"?>
<!-- Generator: Adobe Illustrator 27.0.0, SVG Export Plug-In . SVG Version: 6.00 Build 0)  -->
<svg version="1.1" id="Layer_1" xmlns="http://www.w3.org/2000/svg" xmlns:xlink="http://www.w3.org/1999/xlink" x="0px" y="0px"
	 viewBox="0 0 64.59 50.99" style="enable-background:new 0 0 64.59 50.99;" xml:space="preserve">
<style type="text/css">
	.st0{fill:#555555;}
</style>
<g>
	<g>
		<g>
			<path class="st0" d="M57.67,50.99H6.92C3.11,50.99,0,47.88,0,44.06V6.92C0,3.11,3.11,0,6.92,0h50.74c3.82,0,6.92,3.11,6.92,6.92
				v37.14C64.59,47.88,61.49,50.99,57.67,50.99z M6.92,2C4.21,2,2,4.21,2,6.92v37.14c0,2.72,2.21,4.92,4.92,4.92h50.74
				c2.72,0,4.92-2.21,4.92-4.92V6.92c0-2.72-2.21-4.92-4.92-4.92H6.92z"/>
		</g>
	</g>
	<g>
		<g>
			<path class="st0" d="M19.8,10.45H7.03c-1.32,0-2.39-1.07-2.39-2.39s1.07-2.39,2.39-2.39H19.8c1.32,0,2.39,1.07,2.39,2.39
				S21.12,10.45,19.8,10.45z M7.03,7.66c-0.22,0-0.39,0.18-0.39,0.39c0,0.22,0.18,0.39,0.39,0.39H19.8c0.22,0,0.39-0.18,0.39-0.39
				c0-0.22-0.18-0.39-0.39-0.39H7.03z"/>
		</g>
	</g>
	<g>
		<g>
			<path class="st0" d="M13.66,17.27H7.51c-1.42,0-2.57-1.15-2.57-2.57c0-1.41,1.15-2.57,2.57-2.57h6.15c1.42,0,2.57,1.15,2.57,2.57
				C16.23,16.12,15.08,17.27,13.66,17.27z M7.51,14.13c-0.31,0-0.57,0.25-0.57,0.57s0.25,0.57,0.57,0.57h6.15
				c0.31,0,0.57-0.25,0.57-0.57s-0.25-0.57-0.57-0.57H7.51z"/>
		</g>
	</g>
	<g>
		<g>
			<g>
				<path class="st0" d="M48.75,43.94L48.75,43.94c-1.18,0-2.1-0.92-2.1-2.11c0-1.38-0.15-2.71-0.43-3.97
					c-0.42-1.82-1.38-4.33-2.86-5.92c-0.82-0.89-2.45-0.89-3.27,0c-1.47,1.59-2.44,4.1-2.86,5.92c-0.29,1.25-0.43,2.59-0.43,3.97
					c0,1.18-0.92,2.11-2.1,2.11c-0.88,0-1.63-0.52-1.94-1.37c-0.84-2.26-1.31-4.87-1.43-7.98c-0.09-2.34,0.23-4.9,0.49-6.95
					c0.15-1.2,0.28-2.23,0.26-2.76c-0.03-1-0.46-1.72-0.99-2.64c-0.16-0.27-0.32-0.55-0.48-0.84c-0.9-1.67-1.06-3.06-1.18-4.69
					c-0.26-3.6,1.57-6.52,4.89-7.8c0.85-0.33,1.75-0.49,2.73-0.49c1.6,0,3.15,0.42,4.64,0.83l0.05,0.01l0.05-0.01
					c1.5-0.41,3.04-0.83,4.64-0.83c0.99,0,1.88,0.16,2.73,0.49c3.32,1.28,5.15,4.2,4.89,7.8c-0.12,1.63-0.28,3.01-1.18,4.69
					c-0.16,0.29-0.32,0.57-0.48,0.84c-0.54,0.92-0.96,1.64-0.99,2.64c-0.02,0.53,0.11,1.56,0.26,2.76c0.26,2.06,0.58,4.62,0.49,6.95
					c-0.12,3.11-0.59,5.72-1.43,7.98C50.38,43.42,49.64,43.94,48.75,43.94z M41.73,29.25c1.18,0,2.32,0.49,3.11,1.34
					c1.74,1.88,2.86,4.76,3.34,6.83c0.32,1.4,0.48,2.88,0.48,4.41c0,0.05,0,0.11,0.1,0.11c0.03,0,0.05,0,0.07-0.07
					c0.77-2.05,1.2-4.46,1.31-7.36c0.08-2.17-0.22-4.64-0.47-6.63c-0.17-1.33-0.3-2.38-0.28-3.07c0.04-1.51,0.67-2.57,1.27-3.59
					c0.15-0.25,0.3-0.5,0.44-0.77c0.72-1.33,0.84-2.45,0.95-3.88c0.2-2.72-1.12-4.83-3.62-5.79c-0.62-0.24-1.27-0.35-2.01-0.35
					c-1.33,0-2.75,0.38-4.12,0.76l-0.57,0.16l-0.57-0.16c-1.37-0.37-2.78-0.76-4.12-0.76c-0.74,0-1.4,0.12-2.01,0.35
					c-2.5,0.96-3.81,3.08-3.62,5.79c0.1,1.44,0.23,2.56,0.95,3.88c0.14,0.27,0.29,0.52,0.44,0.77c0.6,1.02,1.23,2.08,1.27,3.6
					c0.02,0.68-0.11,1.74-0.28,3.07c-0.25,1.98-0.56,4.45-0.47,6.63c0.11,2.9,0.54,5.3,1.31,7.36c0.17,0.07,0.17,0.01,0.17-0.04
					c0-1.53,0.16-3.01,0.48-4.41c0.47-2.07,1.6-4.95,3.34-6.83C39.41,29.74,40.54,29.25,41.73,29.25z"/>
			</g>
		</g>
	</g>
	<g>
		<g>
			<g>
				<path class="st0" d="M31.49,45.46h-2.7v-2.7c0-0.27-0.22-0.49-0.49-0.49c-0.27,0-0.49,0.22-0.49,0.49v3.19
					c0,0.27,0.22,0.49,0.49,0.49h3.19c0.27,0,0.49-0.22,0.49-0.49C31.98,45.68,31.76,45.46,31.49,45.46z"/>
			</g>
		</g>
		<g>
			<g>
				<path class="st0" d="M28.79,9.23v-2.7h2.7c0.27,0,0.49-0.22,0.49-0.49s-0.22-0.49-0.49-0.49H28.3c-0.27,0-0.49,0.22-0.49,0.49
					v3.19c0,0.27,0.22,0.49,0.49,0.49C28.57,9.72,28.79,9.5,28.79,9.23z"/>
			</g>
		</g>
		<g>
			<g>
				<path class="st0" d="M51.96,45.46h2.7v-2.7c0-0.27,0.22-0.49,0.49-0.49c0.27,0,0.49,0.22,0.49,0.49v3.19
					c0,0.27-0.22,0.49-0.49,0.49h-3.19c-0.27,0-0.49-0.22-0.49-0.49C51.47,45.68,51.69,45.46,51.96,45.46z"/>
			</g>
		</g>
		<g>
			<g>
				<path class="st0" d="M54.66,9.23v-2.7h-2.7c-0.27,0-0.49-0.22-0.49-0.49s0.22-0.49,0.49-0.49h3.19c0.27,0,0.49,0.22,0.49,0.49
					v3.19c0,0.27-0.22,0.49-0.49,0.49C54.88,9.72,54.66,9.5,54.66,9.23z"/>
			</g>
		</g>
	</g>
</g>
</svg>
