<?xml version="1.0" encoding="utf-8"?>
<!-- Generator: Adobe Illustrator 27.0.0, SVG Export Plug-In . SVG Version: 6.00 Build 0)  -->
<svg version="1.1" id="Layer_1" xmlns="http://www.w3.org/2000/svg" xmlns:xlink="http://www.w3.org/1999/xlink" x="0px" y="0px"
	 viewBox="0 0 41.38 60.22" style="enable-background:new 0 0 41.38 60.22;" xml:space="preserve">
<style type="text/css">
	.st0{fill:#555555;}
</style>
<g>
	<g>
		<g>
			<path class="st0" d="M32.89,60.22L32.89,60.22c-1.43,0-2.91-1.09-2.91-2.92c0-2.44-0.26-4.82-0.77-7.05
				c-0.74-3.25-2.48-7.75-5.14-10.62c-0.86-0.92-2.09-1.45-3.39-1.45c-1.3,0-2.53,0.53-3.39,1.46c-2.66,2.87-4.4,7.37-5.14,10.62
				c-0.51,2.24-0.77,4.61-0.77,7.05c0,1.83-1.48,2.92-2.91,2.92c-1.22,0-2.25-0.73-2.69-1.89c-1.44-3.85-2.24-8.31-2.44-13.63
				c-0.15-4,0.4-8.41,0.84-11.96c0.26-2.11,0.49-3.93,0.46-4.91c-0.06-1.93-0.88-3.32-1.83-4.94C2.54,22.42,2.27,21.95,2,21.46
				c-1.5-2.78-1.77-5.1-1.97-7.85C0,13.14-0.01,12.66,0.01,12.08l0.03-1.17l1.15,0.22c0.86,0.16,1.66,0.01,2.01-0.37
				c0.21-0.23,0.29-0.58,0.24-1.03C3.29,8.28,3.49,7.29,4.08,6.63C4.8,5.82,5.81,5.8,6.63,5.79C7.08,5.79,7.6,5.78,7.74,5.61
				c1.14-1.36,1.48-2.68,1.03-3.93L8.38,0.63l1.09-0.27C10.44,0.12,11.46,0,12.55,0c2.69,0,5.33,0.72,7.89,1.41l0.25,0.07l0.27-0.07
				C23.51,0.72,26.15,0,28.83,0c1.63,0,3.09,0.26,4.48,0.8c5.46,2.11,8.46,6.9,8.03,12.81c-0.2,2.75-0.47,5.07-1.97,7.85
				c-0.27,0.49-0.54,0.96-0.82,1.43c-0.95,1.62-1.78,3.02-1.83,4.94c-0.03,0.98,0.2,2.8,0.46,4.91c0.44,3.55,0.99,7.96,0.84,11.96
				c-0.21,5.32-1.01,9.78-2.44,13.63C35.14,59.49,34.11,60.22,32.89,60.22z M20.69,36.17c1.85,0,3.62,0.76,4.85,2.1
				c2.92,3.16,4.82,8.03,5.62,11.53c0.54,2.38,0.82,4.91,0.82,7.5c0,0.73,0.6,0.92,0.91,0.92l0,0c0.22,0,0.62-0.08,0.81-0.59
				c1.36-3.64,2.12-7.9,2.32-13c0.15-3.84-0.39-8.16-0.83-11.63c-0.29-2.28-0.51-4.08-0.48-5.21c0.07-2.44,1.11-4.2,2.11-5.9
				c0.26-0.44,0.52-0.89,0.78-1.36c1.31-2.43,1.55-4.45,1.73-7.04c0.36-4.99-2.16-9.03-6.75-10.8C31.43,2.22,30.2,2,28.83,2
				c-2.41,0-4.92,0.68-7.34,1.34l-0.8,0.22l-0.77-0.21C17.49,2.69,14.97,2,12.55,2c-0.57,0-1.11,0.04-1.64,0.11
				c0.17,1.29-0.11,2.95-1.65,4.78c-0.73,0.87-1.82,0.88-2.61,0.9C6.24,7.8,5.71,7.81,5.57,7.96C5.53,8.01,5.31,8.33,5.44,9.51
				c0.14,1.3-0.33,2.12-0.74,2.58c-0.62,0.69-1.56,1.08-2.68,1.1c0,0.09,0.01,0.18,0.02,0.27c0.19,2.59,0.42,4.61,1.73,7.04
				c0.25,0.47,0.52,0.92,0.78,1.36c1,1.7,2.04,3.46,2.11,5.9c0.03,1.13-0.19,2.93-0.48,5.21c-0.43,3.47-0.97,7.8-0.83,11.63
				c0.2,5.11,0.96,9.36,2.32,13c0.19,0.52,0.59,0.59,0.81,0.59c0.32,0,0.91-0.19,0.91-0.92c0-2.59,0.28-5.11,0.82-7.5
				c0.8-3.5,2.69-8.37,5.62-11.53C17.07,36.94,18.84,36.17,20.69,36.17z"/>
		</g>
	</g>
	<g>
		<g>
			<path class="st0" d="M7.71,23.04c-0.31,0-0.62-0.14-0.81-0.42c-1.66-2.32-2.17-4.37-2.67-6.8c-0.09-0.42-0.15-0.85-0.2-1.37
				c-0.05-0.55,0.35-1.04,0.9-1.09c0.56-0.04,1.04,0.35,1.09,0.9c0.04,0.38,0.09,0.77,0.17,1.16c0.46,2.27,0.9,4.03,2.33,6.03
				c0.32,0.45,0.22,1.07-0.23,1.4C8.11,22.97,7.91,23.04,7.71,23.04z"/>
		</g>
	</g>
</g>
</svg>
