<svg xmlns="http://www.w3.org/2000/svg" xmlns:xlink="http://www.w3.org/1999/xlink" x="0px" y="0px"
	 viewBox="0 0 213.28 73.68" style="enable-background:new 0 0 213.28 73.68;" xml:space="preserve">
<g>
	<path d="M17.84,8h6.88v5.28c0,4.59-0.81,8.89-2.44,12.92c-1.63,4.03-3.96,7.57-7,10.64c-3.04,3.07-6.72,5.37-11.04,6.92L0,37.12
		c2.83-1.01,5.35-2.35,7.56-4c2.21-1.65,4.09-3.55,5.64-5.68c1.55-2.13,2.71-4.4,3.48-6.8c0.77-2.4,1.16-4.85,1.16-7.36V8z
		 M2.4,5.52h39.12v6.8H2.4V5.52z M36.24,46.08c5.12,0,9.51,0.55,13.16,1.64c3.65,1.09,6.48,2.67,8.48,4.72c2,2.05,3,4.55,3,7.48
		c0,4.37-2.2,7.76-6.6,10.16s-10.41,3.6-18.04,3.6c-7.63,0-13.65-1.2-18.08-3.6c-4.43-2.4-6.64-5.79-6.64-10.16
		c0-2.93,1-5.43,3-7.48c2-2.05,4.85-3.63,8.56-4.72C26.79,46.63,31.17,46.08,36.24,46.08z M19.52,8h6.8v5.28c0,2.99,0.67,5.92,2,8.8
		c1.33,2.88,3.28,5.45,5.84,7.72c2.56,2.27,5.68,4.07,9.36,5.4l-4.16,6.56c-4.21-1.49-7.8-3.67-10.76-6.52
		c-2.96-2.85-5.21-6.19-6.76-10c-1.55-3.81-2.32-7.8-2.32-11.96V8z M36.24,52.48c-3.47,0-6.41,0.29-8.84,0.88
		c-2.43,0.59-4.28,1.41-5.56,2.48c-1.28,1.07-1.92,2.43-1.92,4.08c0,1.55,0.64,2.88,1.92,4c1.28,1.12,3.13,1.96,5.56,2.52
		c2.43,0.56,5.37,0.84,8.84,0.84c3.47,0,6.4-0.28,8.8-0.84c2.4-0.56,4.25-1.4,5.56-2.52c1.31-1.12,1.96-2.45,1.96-4
		c0-1.65-0.65-3.01-1.96-4.08c-1.31-1.07-3.16-1.89-5.56-2.48C42.64,52.77,39.71,52.48,36.24,52.48z M39.28,18.96h15.36v6.88H39.28
		V18.96z M52.16,0.64h8.4v43.52h-8.4V0.64z"/>
	<path d="M90.8,8.56h6.88v5.36c0,4.53-0.8,8.8-2.4,12.8s-3.92,7.48-6.96,10.44s-6.75,5.21-11.12,6.76l-4.24-6.64
		c3.84-1.33,7.09-3.2,9.76-5.6c2.67-2.4,4.68-5.13,6.04-8.2c1.36-3.07,2.04-6.25,2.04-9.56V8.56z M75.28,5.76h39.28v6.8H75.28V5.76z
		 M107.12,46c5.01,0,9.33,0.55,12.96,1.64c3.63,1.09,6.43,2.67,8.4,4.72c1.97,2.05,2.96,4.52,2.96,7.4c0,2.93-0.99,5.43-2.96,7.48
		c-1.97,2.05-4.77,3.63-8.4,4.72c-3.63,1.09-7.95,1.64-12.96,1.64c-5.01,0-9.35-0.55-13-1.64c-3.65-1.09-6.45-2.67-8.4-4.72
		c-1.95-2.05-2.92-4.55-2.92-7.48c0-2.88,0.97-5.35,2.92-7.4c1.95-2.05,4.75-3.63,8.4-4.72C97.77,46.55,102.11,46,107.12,46z
		 M107.12,52.64c-3.36,0-6.24,0.27-8.64,0.8c-2.4,0.53-4.24,1.33-5.52,2.4c-1.28,1.07-1.92,2.37-1.92,3.92
		c0,1.6,0.64,2.95,1.92,4.04c1.28,1.09,3.12,1.92,5.52,2.48s5.28,0.84,8.64,0.84c3.41,0,6.31-0.28,8.68-0.84
		c2.37-0.56,4.2-1.39,5.48-2.48c1.28-1.09,1.92-2.44,1.92-4.04c0-1.55-0.64-2.85-1.92-3.92c-1.28-1.07-3.11-1.87-5.48-2.4
		C113.43,52.91,110.53,52.64,107.12,52.64z M92.48,8.56h6.8v5.36c0,2.99,0.67,5.87,2,8.64c1.33,2.77,3.28,5.24,5.84,7.4
		c2.56,2.16,5.68,3.83,9.36,5l-4,6.56c-4.32-1.39-7.96-3.44-10.92-6.16c-2.96-2.72-5.21-5.93-6.76-9.64
		c-1.55-3.71-2.32-7.64-2.32-11.8V8.56z M122.32,0.64h8.32v43.68h-8.32V0.64z M128.4,18.4h12.56v6.88H128.4V18.4z"/>
	<path d="M147.2,42.08h66.08v6.64H147.2V42.08z M150.48,7.04h59.12v6.4h-59.12V7.04z M155.2,54.08h8.4v15.44h-8.4V54.08z
		 M155.2,65.68H206v6.56h-50.8V65.68z M180.24,16.08c7.63,0,13.52,0.95,17.68,2.84c4.16,1.89,6.24,4.65,6.24,8.28
		c0,3.57-2.08,6.32-6.24,8.24c-4.16,1.92-10.05,2.88-17.68,2.88s-13.53-0.96-17.72-2.88c-4.19-1.92-6.28-4.67-6.28-8.24
		c0-3.63,2.09-6.39,6.28-8.28C166.71,17.03,172.61,16.08,180.24,16.08z M180.24,22c-5.12,0-8.99,0.43-11.6,1.28
		c-2.61,0.85-3.92,2.16-3.92,3.92c0,1.71,1.31,2.99,3.92,3.84c2.61,0.85,6.48,1.28,11.6,1.28s8.97-0.43,11.56-1.28
		c2.59-0.85,3.88-2.13,3.88-3.84c0-1.76-1.29-3.07-3.88-3.92C189.21,22.43,185.36,22,180.24,22z M176.08,0h8.32v10.88h-8.32V0z
		 M176.72,46.96h8.4v11.76h-8.4V46.96z"/>
</g>
</svg>
